<svg xmlns="http://www.w3.org/2000/svg" xmlns:xlink="http://www.w3.org/1999/xlink" width="500" zoomAndPan="magnify" viewBox="0 0 375 374.999991" height="500" preserveAspectRatio="xMidYMid meet" version="1.0"><defs><g/></defs><g fill="#cd93c6" fill-opacity="1"><g transform="translate(92.502339, 338.073801)"><g><path d="M 229.140625 -98.3125 C 227.585938 -95.675781 226.476562 -93.9375 225.8125 -93.09375 C 225.15625 -92.257812 224.765625 -92.203125 224.640625 -92.921875 C 224.640625 -93.273438 224.96875 -94.050781 225.625 -95.25 C 226.289062 -96.445312 227.070312 -97.796875 227.96875 -99.296875 C 228.875 -100.796875 229.625 -101.960938 230.21875 -102.796875 C 231.539062 -104.597656 232.109375 -105.019531 231.921875 -104.0625 C 231.742188 -103.101562 230.816406 -101.1875 229.140625 -98.3125 Z M 91.84375 -66.5 C 89.914062 -63.738281 88.894531 -62.78125 88.78125 -63.625 C 88.78125 -63.976562 89.109375 -64.722656 89.765625 -65.859375 C 90.429688 -67.003906 91.125 -68.023438 91.84375 -68.921875 C 92.5625 -69.816406 92.976562 -70.144531 93.09375 -69.90625 C 93.332031 -69.664062 93.300781 -69.21875 93 -68.5625 C 92.707031 -67.90625 92.320312 -67.21875 91.84375 -66.5 Z M 219.609375 -92.5625 C 219.609375 -92.800781 219.789062 -92.800781 220.15625 -92.5625 C 220.394531 -92.4375 220.300781 -91.921875 219.875 -91.015625 C 219.457031 -90.117188 218.832031 -89.070312 218 -87.875 C 215.363281 -84.28125 214.046875 -82.90625 214.046875 -83.75 C 213.921875 -83.988281 214.128906 -84.585938 214.671875 -85.546875 C 215.210938 -86.503906 215.84375 -87.460938 216.5625 -88.421875 C 217.394531 -89.503906 218.082031 -90.460938 218.625 -91.296875 C 219.164062 -92.140625 219.492188 -92.5625 219.609375 -92.5625 Z M 272.8125 -225.546875 C 274.25 -224.703125 275.503906 -223.410156 276.578125 -221.671875 C 277.660156 -219.941406 278.265625 -218.175781 278.390625 -216.375 C 278.628906 -213.019531 277.757812 -207.597656 275.78125 -200.109375 C 273.800781 -192.628906 271.015625 -184.15625 267.421875 -174.6875 C 266.335938 -171.8125 264.804688 -168.066406 262.828125 -163.453125 C 260.859375 -158.835938 258.734375 -154.046875 256.453125 -149.078125 C 254.179688 -144.109375 252.054688 -139.582031 250.078125 -135.5 C 248.097656 -131.425781 246.570312 -128.492188 245.5 -126.703125 C 244.65625 -125.265625 243.8125 -123.707031 242.96875 -122.03125 C 242.132812 -120.351562 241.476562 -118.972656 241 -117.890625 C 240.039062 -115.734375 238.960938 -113.9375 237.765625 -112.5 C 237.523438 -112.019531 237.132812 -111.421875 236.59375 -110.703125 C 236.0625 -109.984375 235.675781 -109.328125 235.4375 -108.734375 C 234.832031 -107.296875 234.234375 -106.578125 233.640625 -106.578125 C 233.160156 -106.578125 233.457031 -107.710938 234.53125 -109.984375 C 235.726562 -112.265625 236.148438 -113.941406 235.796875 -115.015625 L 235.25 -116.640625 L 234.171875 -114.65625 C 233.816406 -114.175781 233.425781 -113.632812 233 -113.03125 C 232.582031 -112.4375 232.253906 -112.019531 232.015625 -111.78125 C 231.535156 -111.300781 231.296875 -110.703125 231.296875 -109.984375 C 231.296875 -109.503906 230.9375 -108.90625 230.21875 -108.1875 C 229.625 -107.59375 228.96875 -106.578125 228.25 -105.140625 C 227.882812 -103.941406 227.40625 -103.160156 226.8125 -102.796875 C 226.332031 -102.796875 226.09375 -102.554688 226.09375 -102.078125 C 226.207031 -101.597656 225.84375 -100.789062 225 -99.65625 C 224.164062 -98.519531 223.566406 -98.007812 223.203125 -98.125 C 223.085938 -98.363281 223.296875 -99.113281 223.828125 -100.375 C 224.367188 -101.632812 225.0625 -102.984375 225.90625 -104.421875 C 226.75 -105.859375 227.46875 -106.9375 228.0625 -107.65625 C 229.257812 -108.851562 229.859375 -109.8125 229.859375 -110.53125 C 229.617188 -111.007812 229.859375 -111.488281 230.578125 -111.96875 C 231.054688 -112.207031 231.625 -112.953125 232.28125 -114.203125 C 232.945312 -115.460938 234.359375 -118.3125 236.515625 -122.75 C 237.347656 -124.539062 238.0625 -126.066406 238.65625 -127.328125 C 239.257812 -128.585938 239.625 -129.273438 239.75 -129.390625 C 240.101562 -129.753906 240.816406 -130.953125 241.890625 -132.984375 C 242.972656 -135.023438 244.144531 -137.300781 245.40625 -139.8125 C 246.664062 -142.332031 247.65625 -144.492188 248.375 -146.296875 C 250.050781 -149.890625 250.707031 -152.222656 250.34375 -153.296875 C 249.988281 -154.140625 250.226562 -154.738281 251.0625 -155.09375 C 251.90625 -155.332031 252.207031 -155.929688 251.96875 -156.890625 C 251.96875 -158.085938 252.6875 -159.585938 254.125 -161.390625 C 254.71875 -162.222656 255.375 -163.359375 256.09375 -164.796875 C 256.8125 -166.234375 257.410156 -167.550781 257.890625 -168.75 C 258.367188 -169.945312 258.816406 -171.054688 259.234375 -172.078125 C 259.660156 -173.097656 259.929688 -173.785156 260.046875 -174.140625 C 260.523438 -174.859375 260.644531 -176.054688 260.40625 -177.734375 C 260.40625 -179.535156 260.644531 -180.5 261.125 -180.625 C 261.363281 -180.625 261.515625 -180.890625 261.578125 -181.421875 C 261.640625 -181.960938 261.609375 -182.472656 261.484375 -182.953125 C 261.367188 -184.035156 261.191406 -184.515625 260.953125 -184.390625 C 260.710938 -184.273438 260.234375 -183.257812 259.515625 -181.34375 C 259.148438 -180.257812 258.578125 -178.726562 257.796875 -176.75 C 257.023438 -174.769531 256.28125 -172.941406 255.5625 -171.265625 C 254.84375 -169.710938 254.0625 -167.859375 253.21875 -165.703125 C 252.382812 -163.546875 251.664062 -161.804688 251.0625 -160.484375 C 250.582031 -159.171875 249.894531 -157.554688 249 -155.640625 C 248.101562 -153.722656 247.351562 -152.101562 246.75 -150.78125 C 246.15625 -149.582031 245.257812 -147.785156 244.0625 -145.390625 C 242.863281 -142.992188 241.785156 -140.78125 240.828125 -138.75 C 239.023438 -135.03125 237.253906 -131.519531 235.515625 -128.21875 C 233.785156 -124.925781 231.898438 -121.453125 229.859375 -117.796875 C 227.828125 -114.148438 225.429688 -109.988281 222.671875 -105.3125 C 219.910156 -100.644531 216.613281 -95.070312 212.78125 -88.59375 C 210.75 -85.238281 209.191406 -82.484375 208.109375 -80.328125 C 207.035156 -78.171875 206.554688 -76.972656 206.671875 -76.734375 C 207.148438 -76.378906 207.867188 -76.617188 208.828125 -77.453125 C 209.671875 -78.410156 210.09375 -78.53125 210.09375 -77.8125 C 210.207031 -77.570312 209.753906 -76.523438 208.734375 -74.671875 C 207.722656 -72.816406 206.617188 -70.957031 205.421875 -69.09375 C 204.222656 -67.238281 203.320312 -66.015625 202.71875 -65.421875 C 202.601562 -65.179688 202.425781 -64.820312 202.1875 -64.34375 C 201.945312 -63.863281 201.882812 -63.503906 202 -63.265625 C 202 -62.546875 201.878906 -61.707031 201.640625 -60.75 C 201.523438 -60.507812 201.644531 -60.566406 202 -60.921875 C 202.363281 -61.285156 202.785156 -61.882812 203.265625 -62.71875 C 204.578125 -64.394531 205.234375 -65.59375 205.234375 -66.3125 C 205.234375 -66.789062 205.648438 -67.539062 206.484375 -68.5625 C 207.328125 -69.582031 207.988281 -70.09375 208.46875 -70.09375 C 209.550781 -70.09375 211.828125 -73.207031 215.296875 -79.4375 C 216.859375 -82.070312 217.9375 -83.75 218.53125 -84.46875 C 219.132812 -85.1875 219.492188 -85.125 219.609375 -84.28125 C 219.609375 -83.6875 218.890625 -82.25 217.453125 -79.96875 C 216.859375 -79.007812 216.320312 -78.109375 215.84375 -77.265625 C 215.363281 -76.429688 215.125 -75.957031 215.125 -75.84375 C 215.238281 -75.71875 215.144531 -75.445312 214.84375 -75.03125 C 214.550781 -74.613281 214.222656 -74.164062 213.859375 -73.6875 C 213.023438 -72.84375 211.976562 -71.460938 210.71875 -69.546875 C 209.457031 -67.628906 208.46875 -66.015625 207.75 -64.703125 C 207.632812 -64.335938 207.125 -63.554688 206.21875 -62.359375 C 205.320312 -61.160156 204.394531 -59.90625 203.4375 -58.59375 C 202.476562 -57.269531 201.070312 -55.320312 199.21875 -52.75 C 197.363281 -50.175781 195.597656 -47.691406 193.921875 -45.296875 C 191.285156 -41.453125 188.140625 -37.460938 184.484375 -33.328125 C 180.828125 -29.203125 177.140625 -25.367188 173.421875 -21.828125 C 169.710938 -18.296875 166.359375 -15.515625 163.359375 -13.484375 C 160.484375 -11.566406 158.328125 -10.128906 156.890625 -9.171875 C 155.453125 -8.210938 154.285156 -7.550781 153.390625 -7.1875 C 152.492188 -6.832031 151.265625 -6.414062 149.703125 -5.9375 C 147.066406 -5.09375 144.609375 -4.640625 142.328125 -4.578125 C 140.054688 -4.523438 137.539062 -4.738281 134.78125 -5.21875 C 131.550781 -5.9375 128.882812 -6.863281 126.78125 -8 C 124.6875 -9.132812 122.203125 -10.84375 119.328125 -13.125 C 116.335938 -15.519531 113.765625 -18.363281 111.609375 -21.65625 C 109.453125 -24.945312 108.015625 -28.148438 107.296875 -31.265625 C 106.335938 -35.097656 105.976562 -40.191406 106.21875 -46.546875 C 106.457031 -52.898438 107.234375 -58.953125 108.546875 -64.703125 C 108.785156 -65.421875 109.535156 -68.203125 110.796875 -73.046875 C 112.054688 -77.898438 113.460938 -83.320312 115.015625 -89.3125 C 116.691406 -95.3125 118.128906 -100.585938 119.328125 -105.140625 C 120.523438 -109.691406 121.125 -112.144531 121.125 -112.5 C 121.25 -112.976562 120.320312 -111.660156 118.34375 -108.546875 C 116.363281 -105.429688 113.664062 -101.175781 110.25 -95.78125 C 106.84375 -90.394531 103.039062 -84.285156 98.84375 -77.453125 C 97.050781 -74.460938 95.796875 -72.578125 95.078125 -71.796875 C 94.359375 -71.015625 93.9375 -71.046875 93.8125 -71.890625 C 93.8125 -72.128906 94.171875 -72.90625 94.890625 -74.21875 C 95.609375 -75.539062 96.445312 -76.976562 97.40625 -78.53125 C 98.363281 -80.207031 99.140625 -81.613281 99.734375 -82.75 C 100.335938 -83.894531 100.519531 -84.40625 100.28125 -84.28125 C 100.164062 -84.164062 99.414062 -83.054688 98.03125 -80.953125 C 96.65625 -78.859375 95.128906 -76.375 93.453125 -73.5 C 91.773438 -70.75 89.617188 -67.21875 86.984375 -62.90625 C 84.347656 -58.59375 82.007812 -54.878906 79.96875 -51.765625 C 78.050781 -48.648438 76.375 -45.921875 74.9375 -43.578125 C 73.5 -41.242188 72.78125 -39.957031 72.78125 -39.71875 C 72.78125 -39.476562 73.289062 -40.046875 74.3125 -41.421875 C 75.332031 -42.796875 76.441406 -44.382812 77.640625 -46.1875 C 80.515625 -51.101562 82.847656 -54.816406 84.640625 -57.328125 C 86.441406 -59.847656 87.398438 -60.925781 87.515625 -60.5625 C 87.640625 -60.320312 87.429688 -59.691406 86.890625 -58.671875 C 86.347656 -57.660156 85.117188 -55.597656 83.203125 -52.484375 C 81.285156 -49.367188 78.234375 -44.453125 74.046875 -37.734375 C 68.171875 -28.628906 62.925781 -20.875 58.3125 -14.46875 C 53.707031 -8.0625 48.945312 -2.039062 44.03125 3.59375 C 40.914062 7.1875 38.304688 10.117188 36.203125 12.390625 C 34.109375 14.671875 32.160156 16.5625 30.359375 18.0625 C 28.566406 19.5625 26.535156 21.085938 24.265625 22.640625 C 21.503906 24.554688 19.222656 25.691406 17.421875 26.046875 C 15.628906 26.410156 13.535156 26.175781 11.140625 25.34375 C 8.867188 24.5 6.472656 23.085938 3.953125 21.109375 C 1.441406 19.140625 -0.472656 17.132812 -1.796875 15.09375 C -3.359375 12.820312 -4.285156 10.304688 -4.578125 7.546875 C -4.878906 4.796875 -4.789062 1.082031 -4.3125 -3.59375 C -3.957031 -6.46875 -3.269531 -10.300781 -2.25 -15.09375 C -1.226562 -19.882812 -0.03125 -25.15625 1.34375 -30.90625 C 2.726562 -36.65625 4.226562 -42.492188 5.84375 -48.421875 C 7.457031 -54.359375 9.070312 -60.019531 10.6875 -65.40625 C 12.3125 -70.800781 13.84375 -75.414062 15.28125 -79.25 C 16.59375 -82.84375 18.175781 -87.003906 20.03125 -91.734375 C 21.894531 -96.472656 23.875 -101.238281 25.96875 -106.03125 C 28.0625 -110.820312 30.003906 -115.191406 31.796875 -119.140625 C 33.597656 -123.097656 35.097656 -126.15625 36.296875 -128.3125 C 37.253906 -130.226562 38.507812 -132.6875 40.0625 -135.6875 C 41.625 -138.6875 43.003906 -141.320312 44.203125 -143.59375 C 47.921875 -151.144531 51.96875 -159.050781 56.34375 -167.3125 C 60.71875 -175.582031 65.238281 -183.789062 69.90625 -191.9375 C 74.101562 -199.25 77.457031 -205.085938 79.96875 -209.453125 C 82.488281 -213.828125 84.492188 -217.148438 85.984375 -219.421875 C 87.484375 -221.703125 88.679688 -223.320312 89.578125 -224.28125 C 90.484375 -225.25 91.359375 -225.972656 92.203125 -226.453125 C 93.160156 -227.046875 94.238281 -227.398438 95.4375 -227.515625 C 96.632812 -227.640625 97.351562 -227.460938 97.59375 -226.984375 C 97.832031 -226.628906 98.3125 -226.570312 99.03125 -226.8125 C 99.269531 -227.050781 99.507812 -227.109375 99.75 -226.984375 C 99.988281 -226.867188 100.109375 -226.691406 100.109375 -226.453125 C 100.347656 -225.734375 101.066406 -225.191406 102.265625 -224.828125 C 103.460938 -224.460938 104.328125 -223.953125 104.859375 -223.296875 C 105.398438 -222.640625 105.375 -222.007812 104.78125 -221.40625 C 104.175781 -220.8125 103.992188 -219.851562 104.234375 -218.53125 C 104.359375 -217.457031 103.96875 -215.929688 103.0625 -213.953125 C 102.164062 -211.972656 100.941406 -209.90625 99.390625 -207.75 C 98.429688 -206.550781 96.570312 -203.644531 93.8125 -199.03125 C 91.050781 -194.425781 87.875 -188.914062 84.28125 -182.5 C 80.6875 -176.09375 77.035156 -169.535156 73.328125 -162.828125 C 71.046875 -158.628906 68.378906 -153.503906 65.328125 -147.453125 C 62.273438 -141.410156 59.097656 -134.972656 55.796875 -128.140625 C 52.503906 -121.304688 49.300781 -114.535156 46.1875 -107.828125 C 43.070312 -101.117188 40.285156 -94.890625 37.828125 -89.140625 C 35.367188 -83.390625 33.484375 -78.65625 32.171875 -74.9375 C 30.609375 -70.625 28.867188 -65.5625 26.953125 -59.75 C 25.035156 -53.945312 23.175781 -48.019531 21.375 -41.96875 C 19.582031 -35.914062 17.96875 -30.3125 16.53125 -25.15625 C 15.09375 -20.007812 14.078125 -15.878906 13.484375 -12.765625 C 12.523438 -8.085938 11.804688 -3.175781 11.328125 1.96875 C 10.847656 7.125 10.664062 11.082031 10.78125 13.84375 C 10.90625 15.15625 11.023438 15.988281 11.140625 16.34375 C 11.265625 16.707031 11.566406 16.769531 12.046875 16.53125 C 12.398438 16.289062 12.9375 16.050781 13.65625 15.8125 C 14.375 15.570312 14.972656 15.332031 15.453125 15.09375 C 16.410156 14.613281 17.546875 13.953125 18.859375 13.109375 C 20.179688 12.273438 21.351562 11.410156 22.375 10.515625 C 23.394531 9.617188 23.90625 8.988281 23.90625 8.625 C 23.78125 8.269531 23.179688 8.507812 22.109375 9.34375 C 21.148438 10.539062 20.3125 11.140625 19.59375 11.140625 C 19.351562 11.140625 19.738281 10.539062 20.75 9.34375 C 21.769531 8.144531 23.117188 6.648438 24.796875 4.859375 C 26.472656 3.179688 28.269531 1.203125 30.1875 -1.078125 C 32.101562 -3.359375 33.601562 -5.15625 34.6875 -6.46875 C 35.882812 -7.789062 36.929688 -8.929688 37.828125 -9.890625 C 38.722656 -10.847656 39.234375 -11.265625 39.359375 -11.140625 C 39.953125 -10.898438 40.9375 -11.554688 42.3125 -13.109375 C 43.695312 -14.671875 45.289062 -16.769531 47.09375 -19.40625 C 47.925781 -20.726562 48.757812 -21.957031 49.59375 -23.09375 C 50.4375 -24.226562 50.976562 -24.976562 51.21875 -25.34375 C 51.820312 -25.9375 52.484375 -26.953125 53.203125 -28.390625 C 53.554688 -29.109375 54.125 -30.125 54.90625 -31.4375 C 55.6875 -32.757812 56.492188 -34.050781 57.328125 -35.3125 C 58.171875 -36.570312 58.769531 -37.320312 59.125 -37.5625 C 59.488281 -37.800781 60.085938 -38.578125 60.921875 -39.890625 C 61.765625 -41.210938 62.570312 -42.5625 63.34375 -43.9375 C 64.125 -45.320312 64.515625 -46.070312 64.515625 -46.1875 C 64.515625 -46.664062 65.234375 -47.804688 66.671875 -49.609375 C 69.429688 -53.796875 71.257812 -56.640625 72.15625 -58.140625 C 73.050781 -59.640625 73.5 -60.445312 73.5 -60.5625 C 73.5 -60.6875 73.796875 -61.253906 74.390625 -62.265625 C 74.992188 -63.285156 75.71875 -64.457031 76.5625 -65.78125 C 78.351562 -68.289062 79.726562 -70.296875 80.6875 -71.796875 C 81.644531 -73.296875 82.539062 -74.734375 83.375 -76.109375 C 84.21875 -77.484375 85.300781 -79.3125 86.625 -81.59375 C 87.582031 -83.269531 89.019531 -85.632812 90.9375 -88.6875 C 92.851562 -91.75 94.59375 -94.597656 96.15625 -97.234375 C 97.832031 -99.742188 99.238281 -101.957031 100.375 -103.875 C 101.507812 -105.789062 102.078125 -106.8125 102.078125 -106.9375 C 102.078125 -107.050781 102.554688 -107.882812 103.515625 -109.4375 C 104.472656 -111 105.550781 -112.738281 106.75 -114.65625 C 108.070312 -116.695312 109.539062 -119.035156 111.15625 -121.671875 C 112.769531 -124.304688 114.054688 -126.398438 115.015625 -127.953125 C 115.972656 -129.628906 116.867188 -131.035156 117.703125 -132.171875 C 118.546875 -133.316406 119.03125 -133.890625 119.15625 -133.890625 C 119.988281 -133.890625 120.226562 -134.1875 119.875 -134.78125 C 119.875 -135.03125 120.320312 -135.898438 121.21875 -137.390625 C 122.113281 -138.890625 123.160156 -140.597656 124.359375 -142.515625 C 125.679688 -144.429688 126.757812 -146.140625 127.59375 -147.640625 C 128.4375 -149.140625 128.796875 -150.007812 128.671875 -150.25 C 128.671875 -150.96875 129.445312 -151.59375 131 -152.125 C 132.5625 -152.664062 134.242188 -152.878906 136.046875 -152.765625 C 137.847656 -152.640625 138.867188 -152.457031 139.109375 -152.21875 C 139.347656 -151.976562 139.046875 -151.378906 138.203125 -150.421875 C 137.609375 -149.828125 137.398438 -149.5 137.578125 -149.4375 C 137.753906 -149.375 138.441406 -149.460938 139.640625 -149.703125 C 140.835938 -149.941406 141.585938 -150.0625 141.890625 -150.0625 C 142.191406 -150.0625 142.222656 -149.882812 141.984375 -149.53125 C 141.859375 -148.8125 142.097656 -148.453125 142.703125 -148.453125 C 143.421875 -148.453125 143.71875 -147.910156 143.59375 -146.828125 C 143.351562 -145.390625 143.234375 -143.472656 143.234375 -141.078125 C 143.117188 -140.003906 142.878906 -138.445312 142.515625 -136.40625 C 142.160156 -134.363281 141.679688 -132.445312 141.078125 -130.65625 C 140.597656 -128.851562 139.9375 -126.394531 139.09375 -123.28125 C 138.257812 -120.164062 137.546875 -117.289062 136.953125 -114.65625 C 136.347656 -112.019531 135.6875 -109.203125 134.96875 -106.203125 C 134.25 -103.210938 133.648438 -100.878906 133.171875 -99.203125 C 132.804688 -97.648438 132.414062 -96.003906 132 -94.265625 C 131.582031 -92.523438 131.253906 -91.238281 131.015625 -90.40625 C 130.890625 -89.5625 130.46875 -87.703125 129.75 -84.828125 C 129.03125 -81.953125 128.191406 -78.894531 127.234375 -75.65625 C 125.796875 -70.03125 124.6875 -65.566406 123.90625 -62.265625 C 123.132812 -58.972656 122.597656 -56.367188 122.296875 -54.453125 C 121.992188 -52.535156 121.84375 -50.679688 121.84375 -48.890625 C 121.96875 -47.691406 122.03125 -45.769531 122.03125 -43.125 C 122.03125 -40.488281 122.085938 -37.914062 122.203125 -35.40625 C 122.203125 -32.644531 122.234375 -30.546875 122.296875 -29.109375 C 122.359375 -27.671875 122.535156 -26.472656 122.828125 -25.515625 C 123.128906 -24.554688 123.582031 -23.421875 124.1875 -22.109375 C 124.78125 -20.910156 125.4375 -19.710938 126.15625 -18.515625 C 126.875 -17.316406 127.472656 -16.414062 127.953125 -15.8125 C 128.796875 -14.976562 129.515625 -14.46875 130.109375 -14.28125 C 130.710938 -14.101562 131.972656 -14.078125 133.890625 -14.203125 C 135.085938 -14.203125 136.554688 -14.441406 138.296875 -14.921875 C 140.035156 -15.398438 141.679688 -15.878906 143.234375 -16.359375 C 145.148438 -17.078125 147.066406 -17.972656 148.984375 -19.046875 C 150.898438 -20.128906 152.425781 -21.148438 153.5625 -22.109375 C 154.707031 -23.066406 155.039062 -23.664062 154.5625 -23.90625 C 153.84375 -24.019531 155.398438 -25.816406 159.234375 -29.296875 C 161.628906 -31.453125 164.203125 -33.9375 166.953125 -36.75 C 169.710938 -39.5625 172.257812 -42.316406 174.59375 -45.015625 C 176.925781 -47.710938 178.8125 -50.078125 180.25 -52.109375 C 181.695312 -54.148438 182.300781 -55.410156 182.0625 -55.890625 C 181.9375 -56.367188 182.175781 -56.609375 182.78125 -56.609375 C 183.019531 -56.492188 183.4375 -56.703125 184.03125 -57.234375 C 184.632812 -57.773438 185.175781 -58.40625 185.65625 -59.125 C 191.164062 -66.675781 196.222656 -73.894531 200.828125 -80.78125 C 205.441406 -87.675781 209.90625 -94.65625 214.21875 -101.71875 C 218.53125 -108.789062 222.847656 -116.21875 227.171875 -124 C 232.316406 -133.226562 237.132812 -142.601562 241.625 -152.125 C 246.125 -161.65625 250.050781 -170.765625 253.40625 -179.453125 C 256.757812 -188.140625 259.332031 -195.835938 261.125 -202.546875 C 262.925781 -209.253906 263.707031 -214.34375 263.46875 -217.8125 C 263.34375 -219.488281 263.191406 -220.445312 263.015625 -220.6875 C 262.835938 -220.925781 262.269531 -220.925781 261.3125 -220.6875 C 260.832031 -220.570312 260.257812 -220.332031 259.59375 -219.96875 C 258.9375 -219.613281 258.488281 -219.195312 258.25 -218.71875 C 256.9375 -217.15625 256.28125 -217.035156 256.28125 -218.359375 C 256.039062 -219.671875 255.378906 -219.671875 254.296875 -218.359375 C 253.222656 -217.273438 252.710938 -217.390625 252.765625 -218.703125 C 252.828125 -220.023438 253.398438 -221.644531 254.484375 -223.5625 C 255.316406 -225.007812 256.722656 -226.179688 258.703125 -227.078125 C 260.679688 -227.972656 262.71875 -228.507812 264.8125 -228.6875 C 266.90625 -228.875 268.554688 -228.488281 269.765625 -227.53125 C 270.117188 -227.40625 270.59375 -227.132812 271.1875 -226.71875 C 271.789062 -226.300781 272.332031 -225.910156 272.8125 -225.546875 Z M 62 -159.234375 C 62.601562 -160.066406 62.90625 -160.722656 62.90625 -161.203125 C 62.90625 -161.441406 62.8125 -161.472656 62.625 -161.296875 C 62.445312 -161.117188 62.238281 -160.847656 62 -160.484375 C 61.28125 -159.523438 60.984375 -158.867188 61.109375 -158.515625 C 61.109375 -158.148438 61.40625 -158.390625 62 -159.234375 Z M 64.875 -165.34375 C 65.351562 -165.9375 65.472656 -166.351562 65.234375 -166.59375 C 64.992188 -166.832031 64.695312 -166.535156 64.34375 -165.703125 C 64.21875 -165.222656 64.1875 -164.984375 64.25 -164.984375 C 64.3125 -164.984375 64.519531 -165.101562 64.875 -165.34375 Z M 63.625 -171.984375 C 63.625 -171.265625 63.800781 -171.113281 64.15625 -171.53125 C 64.519531 -171.957031 65.300781 -173.25 66.5 -175.40625 C 67.09375 -176.476562 67.628906 -177.460938 68.109375 -178.359375 C 68.585938 -179.265625 68.769531 -179.78125 68.65625 -179.90625 C 68.65625 -180.144531 68.234375 -179.660156 67.390625 -178.453125 C 66.554688 -177.253906 65.71875 -175.96875 64.875 -174.59375 C 64.039062 -173.21875 63.625 -172.347656 63.625 -171.984375 Z M 63.078125 -170.546875 C 62.960938 -170.546875 62.453125 -169.796875 61.546875 -168.296875 C 60.648438 -166.804688 59.84375 -165.28125 59.125 -163.71875 C 58.40625 -162.164062 58.046875 -161.207031 58.046875 -160.84375 C 58.046875 -160.363281 58.34375 -160.539062 58.9375 -161.375 C 59.539062 -162.21875 60.382812 -163.78125 61.46875 -166.0625 C 62.0625 -167.375 62.535156 -168.445312 62.890625 -169.28125 C 63.253906 -170.125 63.316406 -170.546875 63.078125 -170.546875 Z M 56.796875 -158.875 C 56.316406 -158.632812 56.078125 -158.394531 56.078125 -158.15625 C 56.078125 -157.914062 56.316406 -157.851562 56.796875 -157.96875 C 57.273438 -157.96875 57.515625 -158.207031 57.515625 -158.6875 C 57.515625 -159.050781 57.273438 -159.113281 56.796875 -158.875 Z M 54.640625 -154.375 C 54.515625 -154.5 54.148438 -154.050781 53.546875 -153.03125 C 52.953125 -152.007812 52.414062 -150.929688 51.9375 -149.796875 C 51.457031 -148.660156 51.21875 -147.910156 51.21875 -147.546875 C 51.21875 -147.066406 51.488281 -147.15625 52.03125 -147.8125 C 52.570312 -148.476562 53.140625 -149.53125 53.734375 -150.96875 C 54.816406 -152.757812 55.117188 -153.894531 54.640625 -154.375 Z M 38.8125 -123.28125 C 38.332031 -122.5625 37.613281 -121.300781 36.65625 -119.5 C 35.695312 -117.707031 34.890625 -116.003906 34.234375 -114.390625 C 33.578125 -112.773438 33.25 -111.847656 33.25 -111.609375 C 33.25 -111.484375 33.394531 -111.597656 33.6875 -111.953125 C 33.988281 -112.316406 34.320312 -112.859375 34.6875 -113.578125 C 35.039062 -114.296875 35.578125 -115.285156 36.296875 -116.546875 C 37.015625 -117.804688 37.675781 -118.972656 38.28125 -120.046875 C 39.957031 -122.566406 40.796875 -124.125 40.796875 -124.71875 C 40.796875 -125.320312 41.210938 -126.160156 42.046875 -127.234375 C 42.410156 -127.835938 43.039062 -129.035156 43.9375 -130.828125 C 44.84375 -132.628906 45.742188 -134.546875 46.640625 -136.578125 C 47.535156 -138.617188 48.3125 -140.414062 48.96875 -141.96875 C 49.632812 -143.53125 49.96875 -144.429688 49.96875 -144.671875 C 49.96875 -144.910156 49.457031 -144.128906 48.4375 -142.328125 C 47.414062 -140.535156 46.242188 -138.265625 44.921875 -135.515625 C 43.609375 -132.867188 42.441406 -130.523438 41.421875 -128.484375 C 40.398438 -126.453125 39.890625 -125.378906 39.890625 -125.265625 C 39.890625 -125.265625 39.800781 -125.082031 39.625 -124.71875 C 39.445312 -124.363281 39.175781 -123.882812 38.8125 -123.28125 Z M 32.53125 -110.34375 C 32.050781 -109.863281 31.867188 -109.328125 31.984375 -108.734375 C 31.984375 -107.890625 32.164062 -107.890625 32.53125 -108.734375 C 33.007812 -109.210938 33.25 -109.691406 33.25 -110.171875 C 33.25 -110.523438 33.007812 -110.582031 32.53125 -110.34375 Z M 30.546875 -105.140625 C 30.429688 -105.253906 30.015625 -104.5625 29.296875 -103.0625 C 28.578125 -101.570312 28.21875 -100.644531 28.21875 -100.28125 C 28.332031 -99.800781 28.539062 -99.800781 28.84375 -100.28125 C 29.144531 -100.757812 29.472656 -101.476562 29.828125 -102.4375 C 30.066406 -103.15625 30.242188 -103.753906 30.359375 -104.234375 C 30.484375 -104.710938 30.546875 -105.015625 30.546875 -105.140625 Z M 26.234375 -95.796875 C 25.640625 -94.359375 24.863281 -92.4375 23.90625 -90.03125 C 22.945312 -87.632812 22.132812 -85.476562 21.46875 -83.5625 C 20.8125 -81.644531 20.484375 -80.566406 20.484375 -80.328125 C 20.484375 -80.085938 21.113281 -81.34375 22.375 -84.09375 C 23.632812 -86.851562 24.921875 -89.914062 26.234375 -93.28125 C 27.191406 -95.4375 27.640625 -96.898438 27.578125 -97.671875 C 27.523438 -98.453125 27.078125 -97.828125 26.234375 -95.796875 Z M 20.3125 -79.4375 C 20.070312 -79.675781 19.738281 -79.195312 19.3125 -78 C 18.894531 -76.800781 18.6875 -75.898438 18.6875 -75.296875 C 18.6875 -75.179688 18.804688 -75.269531 19.046875 -75.5625 C 19.285156 -75.863281 19.523438 -76.316406 19.765625 -76.921875 C 20.128906 -78.234375 20.3125 -79.070312 20.3125 -79.4375 Z M 16.359375 -69.015625 C 15.878906 -68.296875 15.640625 -67.785156 15.640625 -67.484375 C 15.640625 -67.179688 15.878906 -67.148438 16.359375 -67.390625 C 16.835938 -67.515625 17.078125 -67.992188 17.078125 -68.828125 C 16.953125 -69.429688 16.859375 -69.734375 16.796875 -69.734375 C 16.742188 -69.734375 16.597656 -69.492188 16.359375 -69.015625 Z M 13.84375 -61.109375 C 13.71875 -60.628906 13.742188 -60.476562 13.921875 -60.65625 C 14.109375 -60.832031 14.320312 -61.28125 14.5625 -62 C 15.394531 -63.914062 15.8125 -65.175781 15.8125 -65.78125 C 15.695312 -66.375 15.398438 -66.039062 14.921875 -64.78125 C 14.441406 -63.53125 14.082031 -62.304688 13.84375 -61.109375 Z M 12.765625 -57.875 C 12.640625 -57.632812 12.515625 -57.332031 12.390625 -56.96875 C 12.273438 -56.613281 12.21875 -56.375 12.21875 -56.25 C 12.21875 -55.53125 12.457031 -55.648438 12.9375 -56.609375 C 13.300781 -57.210938 13.484375 -57.753906 13.484375 -58.234375 C 13.484375 -58.710938 13.242188 -58.59375 12.765625 -57.875 Z M 10.421875 -50.140625 C 10.179688 -49.421875 10.0625 -48.703125 10.0625 -47.984375 C 10.0625 -47.628906 10.117188 -47.476562 10.234375 -47.53125 C 10.359375 -47.59375 10.484375 -47.863281 10.609375 -48.34375 C 10.960938 -49.0625 11.140625 -49.78125 11.140625 -50.5 C 11.140625 -50.863281 11.078125 -51.015625 10.953125 -50.953125 C 10.835938 -50.890625 10.660156 -50.617188 10.421875 -50.140625 Z M 8.09375 -41.875 C 7.96875 -40.675781 8.085938 -40.253906 8.453125 -40.609375 C 8.929688 -41.085938 9.050781 -41.75 8.8125 -42.59375 C 8.445312 -43.1875 8.207031 -42.945312 8.09375 -41.875 Z M 5.75 -31.984375 C 5.632812 -32.109375 5.546875 -32.078125 5.484375 -31.890625 C 5.421875 -31.710938 5.453125 -31.503906 5.578125 -31.265625 C 5.578125 -30.304688 5.695312 -30.1875 5.9375 -30.90625 C 6.175781 -31.382812 6.113281 -31.742188 5.75 -31.984375 Z M 4.859375 -28.390625 C 4.492188 -27.191406 4.613281 -26.894531 5.21875 -27.5 C 5.457031 -27.738281 5.578125 -28.273438 5.578125 -29.109375 C 5.210938 -29.472656 4.972656 -29.234375 4.859375 -28.390625 Z M 1.265625 -7.375 C 1.503906 -8.09375 1.441406 -8.507812 1.078125 -8.625 C 0.835938 -8.863281 0.71875 -8.566406 0.71875 -7.734375 C 0.957031 -7.015625 1.140625 -6.894531 1.265625 -7.375 Z M 4.5 3.421875 C 4.851562 3.179688 5.179688 2.671875 5.484375 1.890625 C 5.785156 1.109375 6.175781 -0.507812 6.65625 -2.96875 C 7.132812 -5.425781 7.851562 -9.171875 8.8125 -14.203125 C 9.53125 -17.796875 10.273438 -21.207031 11.046875 -24.4375 C 11.828125 -27.675781 12.785156 -31.332031 13.921875 -35.40625 C 15.066406 -39.476562 16.535156 -44.570312 18.328125 -50.6875 C 19.890625 -56.070312 21.175781 -60.378906 22.1875 -63.609375 C 23.207031 -66.847656 24.164062 -69.632812 25.0625 -71.96875 C 25.96875 -74.3125 26.957031 -76.738281 28.03125 -79.25 C 28.632812 -80.570312 29.113281 -81.800781 29.46875 -82.9375 C 29.832031 -84.070312 30.015625 -84.757812 30.015625 -85 C 30.015625 -85.601562 30.253906 -86.082031 30.734375 -86.4375 C 31.085938 -86.675781 31.265625 -87.21875 31.265625 -88.0625 C 31.265625 -88.894531 31.382812 -89.3125 31.625 -89.3125 C 31.988281 -89.550781 32.707031 -90.507812 33.78125 -92.1875 C 34.863281 -93.875 35.882812 -95.554688 36.84375 -97.234375 C 37.800781 -98.910156 38.160156 -99.804688 37.921875 -99.921875 C 37.679688 -100.160156 37.203125 -99.800781 36.484375 -98.84375 C 35.878906 -98.125 35.519531 -98.066406 35.40625 -98.671875 C 35.40625 -99.265625 35.820312 -100.28125 36.65625 -101.71875 C 37.5 -103.15625 38.160156 -103.875 38.640625 -103.875 C 38.878906 -103.875 39.023438 -104.023438 39.078125 -104.328125 C 39.140625 -104.628906 39.050781 -104.898438 38.8125 -105.140625 C 38.695312 -105.972656 38.878906 -106.570312 39.359375 -106.9375 C 39.835938 -107.175781 40.40625 -107.832031 41.0625 -108.90625 C 41.71875 -109.988281 42.316406 -111.097656 42.859375 -112.234375 C 43.398438 -113.367188 43.609375 -114.117188 43.484375 -114.484375 C 43.484375 -114.960938 43.84375 -115.5625 44.5625 -116.28125 C 44.925781 -116.519531 45.195312 -116.847656 45.375 -117.265625 C 45.5625 -117.679688 45.65625 -118.007812 45.65625 -118.25 C 45.769531 -118.726562 46.035156 -119.597656 46.453125 -120.859375 C 46.878906 -122.117188 47.75 -124.242188 49.0625 -127.234375 C 50.382812 -130.234375 52.363281 -134.550781 55 -140.1875 C 57.75 -146.414062 59.453125 -150.695312 60.109375 -153.03125 C 60.773438 -155.363281 60.566406 -156.769531 59.484375 -157.25 C 59.128906 -157.375 59.007812 -157.316406 59.125 -157.078125 C 59.601562 -156.835938 59.484375 -156.117188 58.765625 -154.921875 C 57.929688 -153.835938 57.8125 -153.175781 58.40625 -152.9375 C 59.125 -152.820312 59.421875 -152.613281 59.296875 -152.3125 C 59.179688 -152.007812 58.707031 -151.800781 57.875 -151.6875 C 57.03125 -151.5625 56.367188 -151.226562 55.890625 -150.6875 C 55.410156 -150.15625 55.351562 -149.585938 55.71875 -148.984375 C 55.832031 -148.867188 55.738281 -148.539062 55.4375 -148 C 55.144531 -147.457031 54.816406 -146.945312 54.453125 -146.46875 C 53.378906 -145.15625 52.84375 -144.195312 52.84375 -143.59375 C 52.84375 -142.757812 51.941406 -140.960938 50.140625 -138.203125 C 48.222656 -135.203125 47.054688 -133.191406 46.640625 -132.171875 C 46.222656 -131.160156 46.191406 -130.351562 46.546875 -129.75 C 46.785156 -129.15625 46.726562 -128.914062 46.375 -129.03125 C 46.007812 -129.269531 45.523438 -129.179688 44.921875 -128.765625 C 44.328125 -128.347656 44.03125 -127.898438 44.03125 -127.421875 C 44.03125 -126.816406 44.390625 -126.753906 45.109375 -127.234375 C 45.953125 -127.597656 45.953125 -127.179688 45.109375 -125.984375 C 44.390625 -125.023438 43.847656 -124.546875 43.484375 -124.546875 C 43.128906 -124.785156 42.617188 -124.515625 41.953125 -123.734375 C 41.296875 -122.953125 40.910156 -122.082031 40.796875 -121.125 L 40.4375 -119.15625 L 41.6875 -120.765625 C 42.644531 -122.085938 43.09375 -122.414062 43.03125 -121.75 C 42.976562 -121.09375 42.472656 -119.867188 41.515625 -118.078125 C 40.671875 -116.515625 39.828125 -115.253906 38.984375 -114.296875 C 38.148438 -113.335938 37.914062 -113.457031 38.28125 -114.65625 C 38.519531 -115.019531 38.726562 -115.410156 38.90625 -115.828125 C 39.082031 -116.242188 39.234375 -116.570312 39.359375 -116.8125 C 39.710938 -117.175781 39.859375 -117.382812 39.796875 -117.4375 C 39.742188 -117.5 39.597656 -117.410156 39.359375 -117.171875 C 38.753906 -116.816406 38.148438 -115.976562 37.546875 -114.65625 C 36.953125 -113.34375 36.773438 -112.503906 37.015625 -112.140625 C 37.253906 -111.785156 37.046875 -110.859375 36.390625 -109.359375 C 35.734375 -107.859375 35.164062 -107.171875 34.6875 -107.296875 C 34.445312 -107.535156 34.328125 -107.234375 34.328125 -106.390625 C 34.679688 -104.117188 34.441406 -102.984375 33.609375 -102.984375 C 33.367188 -102.984375 33.035156 -102.832031 32.609375 -102.53125 C 32.191406 -102.226562 31.863281 -101.957031 31.625 -101.71875 C 31.144531 -101.125 30.601562 -100.015625 30 -98.390625 C 29.40625 -96.773438 29.171875 -95.726562 29.296875 -95.25 C 29.773438 -93.695312 29.175781 -92.019531 27.5 -90.21875 C 26.0625 -88.78125 25.582031 -87.582031 26.0625 -86.625 C 26.414062 -85.539062 26.351562 -85.117188 25.875 -85.359375 C 25.394531 -85.597656 24.859375 -85.0625 24.265625 -83.75 C 23.660156 -82.550781 23.660156 -81.769531 24.265625 -81.40625 C 24.503906 -81.40625 24.59375 -81.285156 24.53125 -81.046875 C 24.46875 -80.804688 24.257812 -80.566406 23.90625 -80.328125 C 23.0625 -79.609375 22.21875 -78.289062 21.375 -76.375 C 20.539062 -74.457031 20.1875 -72.960938 20.3125 -71.890625 C 20.3125 -71.410156 20.191406 -70.476562 19.953125 -69.09375 C 19.710938 -67.71875 19.351562 -66.253906 18.875 -64.703125 C 18.269531 -62.421875 17.757812 -60.921875 17.34375 -60.203125 C 16.925781 -59.484375 16.476562 -59.125 16 -59.125 C 15.519531 -59.25 15.21875 -59.160156 15.09375 -58.859375 C 14.976562 -58.554688 15.039062 -57.925781 15.28125 -56.96875 C 15.875 -55.289062 15.875 -54.632812 15.28125 -55 C 14.800781 -55.113281 14.378906 -54.992188 14.015625 -54.640625 C 13.898438 -54.273438 14.019531 -54.15625 14.375 -54.28125 C 15.332031 -54.875 15.515625 -54.273438 14.921875 -52.484375 C 14.796875 -52.003906 14.4375 -51.765625 13.84375 -51.765625 C 13.363281 -52.117188 13.300781 -52 13.65625 -51.40625 C 14.019531 -50.925781 13.988281 -49.847656 13.5625 -48.171875 C 13.144531 -46.492188 12.695312 -45.59375 12.21875 -45.46875 C 11.738281 -45.46875 11.679688 -45.046875 12.046875 -44.203125 C 12.398438 -43.242188 12.335938 -42.945312 11.859375 -43.3125 C 11.378906 -43.550781 11.109375 -43.519531 11.046875 -43.21875 C 10.992188 -42.914062 10.96875 -41.988281 10.96875 -40.4375 C 10.96875 -39.957031 11.054688 -39.566406 11.234375 -39.265625 C 11.410156 -38.960938 11.5625 -38.875 11.6875 -39 C 12.039062 -39.113281 12.097656 -38.570312 11.859375 -37.375 C 11.742188 -36.414062 11.445312 -35.695312 10.96875 -35.21875 C 10.726562 -34.976562 10.367188 -34.140625 9.890625 -32.703125 C 9.410156 -31.265625 9.019531 -29.828125 8.71875 -28.390625 C 8.414062 -26.953125 8.328125 -26.054688 8.453125 -25.703125 C 8.929688 -25.460938 8.691406 -24.984375 7.734375 -24.265625 C 6.890625 -23.660156 6.648438 -23.359375 7.015625 -23.359375 C 7.367188 -23.359375 7.367188 -23.0625 7.015625 -22.46875 C 6.890625 -22.101562 6.738281 -21.53125 6.5625 -20.75 C 6.382812 -19.976562 6.234375 -18.753906 6.109375 -17.078125 C 6.109375 -15.878906 5.867188 -14.800781 5.390625 -13.84375 C 4.554688 -12.164062 3.925781 -9.769531 3.5 -6.65625 C 3.082031 -3.539062 2.84375 -0.335938 2.78125 2.953125 C 2.726562 6.253906 2.878906 9.039062 3.234375 11.3125 C 3.597656 13.59375 4.140625 14.734375 4.859375 14.734375 C 5.097656 14.734375 5.097656 14.375 4.859375 13.65625 C 4.378906 13.0625 4.378906 11.445312 4.859375 8.8125 C 5.097656 7.25 5.15625 6.164062 5.03125 5.5625 C 4.914062 4.96875 4.738281 4.613281 4.5 4.5 C 3.894531 4.257812 3.894531 3.898438 4.5 3.421875 Z M 120.953125 -116.453125 C 121.546875 -117.410156 122.203125 -118.757812 122.921875 -120.5 C 123.640625 -122.238281 124.238281 -123.882812 124.71875 -125.4375 C 125.5625 -128.195312 126.191406 -130.6875 126.609375 -132.90625 C 127.023438 -135.125 127.054688 -136.050781 126.703125 -135.6875 C 126.578125 -135.570312 125.796875 -134.429688 124.359375 -132.265625 C 122.921875 -130.109375 121.304688 -127.535156 119.515625 -124.546875 C 117.710938 -121.671875 115.644531 -118.40625 113.3125 -114.75 C 110.976562 -111.09375 109.148438 -108.128906 107.828125 -105.859375 C 106.390625 -103.578125 104.289062 -100.25 101.53125 -95.875 C 98.78125 -91.5 96.207031 -87.335938 93.8125 -83.390625 C 92.257812 -80.753906 90.460938 -77.785156 88.421875 -74.484375 C 86.378906 -71.191406 84.367188 -67.925781 82.390625 -64.6875 C 80.421875 -61.457031 78.71875 -58.707031 77.28125 -56.4375 C 75.238281 -53.082031 73.019531 -49.484375 70.625 -45.640625 C 68.226562 -41.804688 66.429688 -38.875 65.234375 -36.84375 C 64.035156 -34.925781 63.109375 -33.25 62.453125 -31.8125 C 61.796875 -30.375 61.523438 -29.65625 61.640625 -29.65625 C 61.878906 -29.65625 62.296875 -29.953125 62.890625 -30.546875 C 63.492188 -31.148438 64.035156 -31.8125 64.515625 -32.53125 C 65.117188 -33.363281 65.75 -34.226562 66.40625 -35.125 C 67.0625 -36.03125 67.628906 -36.722656 68.109375 -37.203125 C 69.066406 -38.160156 71.851562 -42.265625 76.46875 -49.515625 C 81.082031 -56.765625 86.6875 -65.78125 93.28125 -76.5625 C 95.789062 -80.75 98.0625 -84.488281 100.09375 -87.78125 C 102.132812 -91.082031 103.273438 -92.851562 103.515625 -93.09375 C 104.472656 -94.175781 105.039062 -94.597656 105.21875 -94.359375 C 105.40625 -94.117188 105.140625 -93.335938 104.421875 -92.015625 C 104.054688 -91.296875 103.601562 -90.457031 103.0625 -89.5 C 102.53125 -88.539062 102.144531 -87.757812 101.90625 -87.15625 C 101.425781 -86.082031 101.15625 -85.515625 101.09375 -85.453125 C 101.03125 -85.390625 101.238281 -85.660156 101.71875 -86.265625 C 102.320312 -86.984375 102.984375 -87.820312 103.703125 -88.78125 C 104.421875 -89.738281 105.4375 -91.296875 106.75 -93.453125 C 108.070312 -95.609375 109.929688 -98.664062 112.328125 -102.625 C 114.117188 -105.5 115.851562 -108.28125 117.53125 -110.96875 C 119.207031 -113.664062 120.347656 -115.492188 120.953125 -116.453125 Z M 121.84375 -99.03125 C 121.726562 -98.90625 121.457031 -98.15625 121.03125 -96.78125 C 120.613281 -95.40625 120.253906 -94 119.953125 -92.5625 C 119.660156 -91.125 119.515625 -90.222656 119.515625 -89.859375 C 119.515625 -89.253906 119.691406 -89.375 120.046875 -90.21875 C 120.410156 -91.0625 120.832031 -92.617188 121.3125 -94.890625 C 121.90625 -97.890625 122.082031 -99.269531 121.84375 -99.03125 Z M 113.40625 -66.3125 C 113.039062 -65.476562 112.859375 -64.878906 112.859375 -64.515625 C 112.859375 -64.160156 113.039062 -64.222656 113.40625 -64.703125 C 113.882812 -65.660156 114.0625 -66.316406 113.9375 -66.671875 C 113.9375 -67.390625 113.757812 -67.269531 113.40625 -66.3125 Z M 111.609375 -57.515625 C 111.367188 -57.515625 111.25 -57.15625 111.25 -56.4375 C 111.363281 -56.070312 111.453125 -55.890625 111.515625 -55.890625 C 111.578125 -55.890625 111.609375 -56.007812 111.609375 -56.25 C 111.847656 -56.726562 111.847656 -57.148438 111.609375 -57.515625 Z M 110.703125 -49.0625 C 110.828125 -49.539062 110.828125 -49.960938 110.703125 -50.328125 C 110.460938 -50.441406 110.34375 -50.140625 110.34375 -49.421875 C 110.34375 -49.066406 110.398438 -48.859375 110.515625 -48.796875 C 110.640625 -48.734375 110.703125 -48.820312 110.703125 -49.0625 Z M 111.25 -52.84375 C 111.488281 -53.5625 111.425781 -54.097656 111.0625 -54.453125 C 110.945312 -54.691406 110.859375 -54.722656 110.796875 -54.546875 C 110.734375 -54.367188 110.765625 -54.039062 110.890625 -53.5625 C 110.890625 -52.601562 111.007812 -52.363281 111.25 -52.84375 Z M 116.28125 -51.40625 C 116.394531 -52.71875 116.867188 -55.53125 117.703125 -59.84375 C 118.546875 -64.15625 119.65625 -69.484375 121.03125 -75.828125 C 122.414062 -82.179688 123.945312 -89.078125 125.625 -96.515625 C 125.976562 -98.191406 126.332031 -99.773438 126.6875 -101.265625 C 127.050781 -102.765625 127.296875 -103.695312 127.421875 -104.0625 C 127.660156 -104.65625 127.75 -104.953125 127.6875 -104.953125 C 127.625 -104.953125 127.296875 -104.65625 126.703125 -104.0625 C 126.335938 -103.582031 125.734375 -102.050781 124.890625 -99.46875 C 124.054688 -96.894531 123.160156 -93.988281 122.203125 -90.75 C 121.242188 -87.519531 120.4375 -84.613281 119.78125 -82.03125 C 119.125 -79.457031 118.851562 -77.992188 118.96875 -77.640625 C 119.332031 -76.078125 119.09375 -74.878906 118.25 -74.046875 C 117.53125 -72.960938 116.753906 -70.6875 115.921875 -67.21875 C 113.160156 -55.71875 112.019531 -45.953125 112.5 -37.921875 C 112.738281 -34.566406 113.25 -31.269531 114.03125 -28.03125 C 114.8125 -24.800781 115.441406 -23.1875 115.921875 -23.1875 C 115.921875 -23.1875 115.859375 -23.929688 115.734375 -25.421875 C 115.617188 -26.921875 115.441406 -28.691406 115.203125 -30.734375 C 114.722656 -35.878906 114.722656 -40.128906 115.203125 -43.484375 C 115.441406 -44.804688 115.648438 -46.273438 115.828125 -47.890625 C 116.003906 -49.515625 116.15625 -50.6875 116.28125 -51.40625 Z M 202.546875 -69.1875 C 203.265625 -70.507812 203.265625 -70.929688 202.546875 -70.453125 C 202.421875 -70.328125 202.117188 -69.875 201.640625 -69.09375 C 201.160156 -68.320312 200.742188 -67.578125 200.390625 -66.859375 C 199.785156 -65.535156 199.484375 -64.8125 199.484375 -64.6875 C 199.484375 -64.570312 199.785156 -64.875 200.390625 -65.59375 C 200.742188 -66.195312 201.128906 -66.828125 201.546875 -67.484375 C 201.972656 -68.140625 202.304688 -68.707031 202.546875 -69.1875 Z M 271.921875 -196.96875 C 271.921875 -198.289062 271.921875 -199.367188 271.921875 -200.203125 C 271.921875 -201.046875 271.921875 -201.523438 271.921875 -201.640625 C 271.796875 -201.765625 271.644531 -201.492188 271.46875 -200.828125 C 271.289062 -200.171875 271.082031 -199.363281 270.84375 -198.40625 C 270.363281 -196.613281 269.460938 -193.738281 268.140625 -189.78125 C 266.816406 -185.832031 265.316406 -181.640625 263.640625 -177.203125 C 261.960938 -172.765625 260.40625 -168.75 258.96875 -165.15625 C 257.769531 -162.164062 256.269531 -158.753906 254.46875 -154.921875 C 252.675781 -151.085938 250.910156 -147.34375 249.171875 -143.6875 C 247.441406 -140.03125 245.914062 -136.941406 244.59375 -134.421875 C 243.28125 -131.910156 242.441406 -130.472656 242.078125 -130.109375 C 241.484375 -129.753906 241.1875 -129.273438 241.1875 -128.671875 C 241.1875 -128.554688 240.914062 -127.925781 240.375 -126.78125 C 239.832031 -125.644531 239.203125 -124.359375 238.484375 -122.921875 C 236.566406 -119.453125 235.789062 -117.238281 236.15625 -116.28125 C 236.507812 -115.4375 236.894531 -115.164062 237.3125 -115.46875 C 237.738281 -115.769531 238.488281 -116.878906 239.5625 -118.796875 C 240.882812 -121.066406 241.425781 -122.625 241.1875 -123.46875 C 240.820312 -123.945312 241 -124.425781 241.71875 -124.90625 C 242.5625 -125.144531 243.398438 -126.039062 244.234375 -127.59375 C 245.078125 -129.15625 245.316406 -130.175781 244.953125 -130.65625 C 244.835938 -130.894531 244.804688 -131.039062 244.859375 -131.09375 C 244.921875 -131.15625 245.015625 -131.066406 245.140625 -130.828125 C 245.734375 -130.710938 246.238281 -131.070312 246.65625 -131.90625 C 247.082031 -132.75 247.175781 -133.46875 246.9375 -134.0625 C 246.570312 -134.664062 246.628906 -135.085938 247.109375 -135.328125 C 247.472656 -135.566406 247.59375 -135.328125 247.46875 -134.609375 C 247.113281 -133.765625 247.296875 -133.703125 248.015625 -134.421875 C 248.253906 -134.660156 248.429688 -135.082031 248.546875 -135.6875 C 248.671875 -136.289062 248.734375 -136.890625 248.734375 -137.484375 C 248.492188 -138.921875 248.789062 -139.640625 249.625 -139.640625 C 250.34375 -139.640625 250.644531 -140.179688 250.53125 -141.265625 C 250.40625 -142.460938 250.644531 -143.0625 251.25 -143.0625 C 251.84375 -143.175781 252.5 -144.007812 253.21875 -145.5625 C 253.9375 -147.125 254.238281 -148.445312 254.125 -149.53125 C 254.125 -150.601562 254.242188 -151.019531 254.484375 -150.78125 C 254.722656 -150.664062 255.109375 -151.054688 255.640625 -151.953125 C 256.179688 -152.847656 256.660156 -153.863281 257.078125 -155 C 257.503906 -156.144531 257.71875 -156.894531 257.71875 -157.25 C 257.476562 -157.851562 257.835938 -158.632812 258.796875 -159.59375 C 259.628906 -160.664062 260.164062 -162.039062 260.40625 -163.71875 C 260.644531 -165.519531 261.066406 -166.539062 261.671875 -166.78125 C 262.390625 -167.019531 262.628906 -167.4375 262.390625 -168.03125 C 262.023438 -168.632812 262.144531 -169.234375 262.75 -169.828125 C 263.101562 -170.191406 263.550781 -170.941406 264.09375 -172.078125 C 264.632812 -173.210938 265.144531 -174.347656 265.625 -175.484375 C 266.101562 -176.628906 266.28125 -177.378906 266.15625 -177.734375 C 266.15625 -177.972656 266.242188 -178.332031 266.421875 -178.8125 C 266.609375 -179.289062 266.757812 -179.832031 266.875 -180.4375 C 268.550781 -184.394531 269.78125 -187.660156 270.5625 -190.234375 C 271.34375 -192.804688 271.796875 -195.050781 271.921875 -196.96875 Z M 271.921875 -196.96875 "/></g></g></g><g fill="#7ca8c8" fill-opacity="1"><g transform="translate(3.750004, 242.660983)"><g><path d="M 154.71875 -214.875 C 164.082031 -204.1875 168.039062 -188.695312 166.59375 -168.40625 C 166.351562 -164.320312 166.050781 -160.535156 165.6875 -157.046875 C 165.332031 -153.566406 164.796875 -149.96875 164.078125 -146.25 C 163.359375 -142.53125 162.425781 -138.328125 161.28125 -133.640625 C 160.144531 -128.953125 158.675781 -123.367188 156.875 -116.890625 C 155.550781 -111.960938 153.71875 -106.523438 151.375 -100.578125 C 149.039062 -94.640625 146.367188 -88.609375 143.359375 -82.484375 C 140.359375 -76.359375 137.238281 -70.535156 134 -65.015625 C 130.757812 -59.492188 127.578125 -54.753906 124.453125 -50.796875 C 124.210938 -50.316406 123.757812 -49.65625 123.09375 -48.8125 C 122.4375 -47.96875 121.8125 -47.066406 121.21875 -46.109375 C 119.289062 -43.347656 116.46875 -39.925781 112.75 -35.84375 C 109.03125 -31.757812 105.304688 -27.859375 101.578125 -24.140625 C 101.816406 -23.296875 101.96875 -22.632812 102.03125 -22.15625 C 102.09375 -21.675781 102.125 -21.4375 102.125 -21.4375 C 102.125 -21.3125 102.363281 -20.40625 102.84375 -18.71875 C 103.320312 -17.039062 103.679688 -15.664062 103.921875 -14.59375 C 103.921875 -14.46875 104.097656 -13.742188 104.453125 -12.421875 C 104.816406 -11.109375 105.207031 -9.640625 105.625 -8.015625 C 106.050781 -6.390625 106.414062 -4.976562 106.71875 -3.78125 C 107.019531 -2.582031 107.171875 -1.984375 107.171875 -1.984375 C 109.328125 4.503906 111.273438 9.519531 113.015625 13.0625 C 114.753906 16.601562 116.585938 19.453125 118.515625 21.609375 C 120.191406 23.296875 121.207031 24.226562 121.5625 24.40625 C 121.925781 24.582031 122.410156 24.375 123.015625 23.78125 C 123.617188 23.175781 124.398438 22.78125 125.359375 22.59375 C 126.316406 22.414062 126.796875 22.628906 126.796875 23.234375 C 126.796875 23.597656 127.335938 23.898438 128.421875 24.140625 C 130.460938 24.617188 131.8125 25.695312 132.46875 27.375 C 133.132812 29.050781 132.742188 30.3125 131.296875 31.15625 C 130.941406 31.28125 130.101562 31.460938 128.78125 31.703125 C 127.457031 31.941406 126.078125 32.0625 124.640625 32.0625 C 122.234375 32.175781 120.519531 32.144531 119.5 31.96875 C 118.476562 31.789062 116.828125 31.222656 114.546875 30.265625 C 112.390625 29.296875 110.828125 28.332031 109.859375 27.375 C 108.898438 26.414062 107.222656 24.734375 104.828125 22.328125 C 100.617188 18.128906 97.070312 12.878906 94.1875 6.578125 C 91.3125 0.273438 88.972656 -5.878906 87.171875 -11.890625 C 86.804688 -11.765625 86.535156 -11.582031 86.359375 -11.34375 C 86.179688 -11.101562 85.972656 -10.925781 85.734375 -10.8125 C 85.015625 -10.082031 83.632812 -9.023438 81.59375 -7.640625 C 79.550781 -6.265625 77.566406 -5.003906 75.640625 -3.859375 C 73.722656 -2.722656 72.523438 -2.097656 72.046875 -1.984375 C 71.441406 -1.984375 71.019531 -1.679688 70.78125 -1.078125 C 70.539062 -0.597656 69.550781 -0.03125 67.8125 0.625 C 66.070312 1.289062 64.148438 1.921875 62.046875 2.515625 C 59.941406 3.117188 58.234375 3.484375 56.921875 3.609375 C 56.078125 3.722656 54.960938 3.71875 53.578125 3.59375 C 52.203125 3.476562 50.972656 3.300781 49.890625 3.0625 C 48.453125 2.695312 47.101562 2.15625 45.84375 1.4375 C 44.582031 0.71875 42.867188 -0.421875 40.703125 -1.984375 C 37.703125 -4.265625 35.660156 -6.035156 34.578125 -7.296875 C 33.492188 -8.554688 32.710938 -10.144531 32.234375 -12.0625 C 32.117188 -12.664062 31.820312 -13.445312 31.34375 -14.40625 C 30.863281 -15.363281 30.378906 -16.207031 29.890625 -16.9375 C 29.296875 -17.894531 28.816406 -19.03125 28.453125 -20.34375 C 28.097656 -21.664062 27.738281 -23.585938 27.375 -26.109375 C 26.769531 -31.035156 26.796875 -36.890625 27.453125 -43.671875 C 28.117188 -50.460938 29.535156 -58.359375 31.703125 -67.359375 L 33.859375 -76.71875 L 27.921875 -76 C 25.273438 -75.757812 23.441406 -75.695312 22.421875 -75.8125 C 21.398438 -75.9375 20.050781 -76.238281 18.375 -76.71875 C 15.25 -77.925781 12.632812 -79.367188 10.53125 -81.046875 C 8.4375 -82.734375 6.425781 -84.957031 4.5 -87.71875 L 1.265625 -92.75 L 0.546875 -99.953125 C 0.421875 -102.234375 0.328125 -104.035156 0.265625 -105.359375 C 0.210938 -106.679688 0.304688 -108.003906 0.546875 -109.328125 C 0.785156 -110.648438 1.144531 -112.390625 1.625 -114.546875 C 2.457031 -117.671875 3.65625 -121.394531 5.21875 -125.71875 C 6.78125 -130.039062 8.488281 -134.300781 10.34375 -138.5 C 12.207031 -142.707031 13.921875 -146.191406 15.484375 -148.953125 C 16.085938 -149.910156 16.804688 -151.140625 17.640625 -152.640625 C 18.484375 -154.140625 19.207031 -155.488281 19.8125 -156.6875 C 23.894531 -163.78125 28.609375 -170.804688 33.953125 -177.765625 C 39.296875 -184.734375 45.445312 -191.878906 52.40625 -199.203125 C 53.375 -200.160156 54.96875 -201.597656 57.1875 -203.515625 C 59.40625 -205.441406 61.804688 -207.425781 64.390625 -209.46875 C 66.972656 -211.507812 69.253906 -213.28125 71.234375 -214.78125 C 73.210938 -216.28125 74.382812 -217.03125 74.75 -217.03125 C 75.101562 -217.03125 76.238281 -217.597656 78.15625 -218.734375 C 80.082031 -219.878906 82.035156 -221.050781 84.015625 -222.25 C 86.003906 -223.457031 87.175781 -224.238281 87.53125 -224.59375 C 87.769531 -224.832031 88.429688 -225.128906 89.515625 -225.484375 C 90.597656 -225.847656 91.796875 -226.148438 93.109375 -226.390625 C 94.429688 -226.628906 96.289062 -226.988281 98.6875 -227.46875 C 101.09375 -227.957031 103.316406 -228.441406 105.359375 -228.921875 C 109.921875 -230.003906 114.539062 -230.691406 119.21875 -230.984375 C 123.90625 -231.285156 127.570312 -231.140625 130.21875 -230.546875 C 134.539062 -229.578125 138.863281 -227.742188 143.1875 -225.046875 C 147.507812 -222.347656 151.351562 -218.957031 154.71875 -214.875 Z M 156.515625 -168.40625 C 156.148438 -168.164062 156.269531 -168.046875 156.875 -168.046875 C 157.71875 -168.046875 158.019531 -168.523438 157.78125 -169.484375 C 157.78125 -170.566406 157.660156 -170.742188 157.421875 -170.015625 C 157.296875 -169.421875 156.992188 -168.882812 156.515625 -168.40625 Z M 157.421875 -165.875 C 157.660156 -166.476562 157.597656 -166.960938 157.234375 -167.328125 C 156.867188 -167.566406 156.625 -167.535156 156.5 -167.234375 C 156.382812 -166.929688 156.445312 -166.476562 156.6875 -165.875 C 156.9375 -165.394531 157.085938 -165.15625 157.140625 -165.15625 C 157.203125 -165.15625 157.296875 -165.394531 157.421875 -165.875 Z M 156.328125 -163.359375 C 155.972656 -162.640625 155.796875 -161.796875 155.796875 -160.828125 C 155.796875 -159.867188 155.972656 -159.390625 156.328125 -159.390625 C 156.691406 -159.390625 156.875 -159.570312 156.875 -159.9375 C 156.75 -160.175781 156.71875 -160.535156 156.78125 -161.015625 C 156.84375 -161.492188 156.875 -162.035156 156.875 -162.640625 C 157 -163.597656 157.03125 -164.109375 156.96875 -164.171875 C 156.90625 -164.234375 156.691406 -163.960938 156.328125 -163.359375 Z M 155.4375 -153.09375 C 155.4375 -154.175781 155.316406 -154.773438 155.078125 -154.890625 C 154.710938 -155.128906 154.46875 -155.039062 154.34375 -154.625 C 154.226562 -154.207031 154.351562 -153.695312 154.71875 -153.09375 L 155.25 -151.65625 Z M 154.71875 -148.953125 C 154.71875 -149.429688 154.359375 -149.550781 153.640625 -149.3125 C 153.035156 -149.3125 152.734375 -149.128906 152.734375 -148.765625 C 152.734375 -148.285156 153.09375 -148.164062 153.8125 -148.40625 C 154.414062 -148.40625 154.71875 -148.585938 154.71875 -148.953125 Z M 91.5 -224.234375 C 91.375 -224.117188 91.757812 -224.117188 92.65625 -224.234375 C 93.5625 -224.359375 94.582031 -224.539062 95.71875 -224.78125 C 96.863281 -225.019531 97.617188 -225.195312 97.984375 -225.3125 C 98.703125 -225.675781 97.859375 -225.675781 95.453125 -225.3125 C 94.378906 -225.070312 93.453125 -224.863281 92.671875 -224.6875 C 91.890625 -224.507812 91.5 -224.359375 91.5 -224.234375 Z M 6.296875 -106.984375 C 6.660156 -108.304688 6.84375 -109.265625 6.84375 -109.859375 C 6.84375 -110.222656 6.601562 -109.804688 6.125 -108.609375 C 6 -108.128906 5.847656 -107.585938 5.671875 -106.984375 C 5.492188 -106.378906 5.460938 -105.957031 5.578125 -105.71875 C 5.578125 -105.476562 5.664062 -105.476562 5.84375 -105.71875 C 6.03125 -105.957031 6.179688 -106.378906 6.296875 -106.984375 Z M 6.84375 -110.953125 C 6.96875 -110.710938 7.359375 -111.28125 8.015625 -112.65625 C 8.671875 -114.039062 9 -114.972656 9 -115.453125 C 9 -115.691406 8.820312 -115.8125 8.46875 -115.8125 C 8.226562 -115.8125 7.894531 -115.148438 7.46875 -113.828125 C 7.050781 -112.503906 6.84375 -111.546875 6.84375 -110.953125 Z M 12.0625 -128.0625 C 11.820312 -128.65625 11.941406 -129.132812 12.421875 -129.5 C 12.785156 -129.738281 13.207031 -130.640625 13.6875 -132.203125 C 14.050781 -133.285156 14.800781 -135.023438 15.9375 -137.421875 C 17.082031 -139.828125 18.492188 -142.585938 20.171875 -145.703125 C 21.847656 -148.828125 23.585938 -151.890625 25.390625 -154.890625 C 28.878906 -160.660156 32.84375 -166.457031 37.28125 -172.28125 C 41.726562 -178.101562 46.378906 -183.625 51.234375 -188.84375 C 56.097656 -194.0625 60.8125 -198.59375 65.375 -202.4375 C 67.78125 -204.363281 70.003906 -206.101562 72.046875 -207.65625 C 74.085938 -209.21875 75.347656 -210.125 75.828125 -210.375 C 77.023438 -210.96875 77.773438 -211.472656 78.078125 -211.890625 C 78.378906 -212.316406 78.050781 -212.46875 77.09375 -212.34375 C 76.601562 -212.34375 75.398438 -211.648438 73.484375 -210.265625 C 71.566406 -208.890625 69.316406 -207.148438 66.734375 -205.046875 C 64.148438 -202.953125 61.65625 -200.851562 59.25 -198.75 C 56.851562 -196.644531 54.9375 -194.8125 53.5 -193.25 C 50.726562 -190.488281 47.898438 -187.488281 45.015625 -184.25 C 42.140625 -181.007812 39.5625 -178.035156 37.28125 -175.328125 C 35 -172.628906 33.316406 -170.5 32.234375 -168.9375 C 31.398438 -167.738281 30.5 -166.414062 29.53125 -164.96875 C 28.570312 -163.53125 27.796875 -162.332031 27.203125 -161.375 C 26.597656 -160.53125 25.546875 -158.847656 24.046875 -156.328125 C 22.546875 -153.804688 21.015625 -151.285156 19.453125 -148.765625 C 18.015625 -146.128906 16.722656 -143.878906 15.578125 -142.015625 C 14.441406 -140.148438 13.8125 -139.160156 13.6875 -139.046875 C 13.320312 -138.679688 13.203125 -138.378906 13.328125 -138.140625 C 13.328125 -138.023438 12.96875 -137.003906 12.25 -135.078125 C 11.53125 -133.160156 10.6875 -131 9.71875 -128.59375 C 7.800781 -123.914062 6.179688 -119.414062 4.859375 -115.09375 C 3.535156 -110.769531 2.695312 -107.40625 2.34375 -105 C 2.21875 -103.800781 2.273438 -102.238281 2.515625 -100.3125 C 2.753906 -98.394531 3.054688 -96.957031 3.421875 -96 C 4.023438 -94.675781 4.085938 -95.335938 3.609375 -97.984375 C 3.359375 -99.660156 3.414062 -100.800781 3.78125 -101.40625 C 4.257812 -101.882812 4.5625 -101.882812 4.6875 -101.40625 C 4.800781 -100.800781 4.976562 -100.914062 5.21875 -101.75 C 5.457031 -102.59375 5.578125 -103.316406 5.578125 -103.921875 C 5.460938 -104.398438 5.285156 -104.28125 5.046875 -103.5625 C 4.679688 -102.363281 4.5 -102.425781 4.5 -103.75 C 4.382812 -104.46875 4.503906 -105.726562 4.859375 -107.53125 C 5.222656 -109.332031 5.703125 -111.128906 6.296875 -112.921875 C 6.898438 -114.722656 7.382812 -115.863281 7.75 -116.34375 C 8.46875 -117.070312 8.707031 -117.554688 8.46875 -117.796875 C 8.101562 -118.035156 8.25 -119.113281 8.90625 -121.03125 C 9.570312 -122.957031 10.207031 -124.21875 10.8125 -124.8125 C 11.53125 -125.53125 11.769531 -126.128906 11.53125 -126.609375 C 11.40625 -126.734375 11.375 -126.851562 11.4375 -126.96875 C 11.5 -127.09375 11.585938 -127.15625 11.703125 -127.15625 C 12.179688 -127.15625 12.300781 -127.457031 12.0625 -128.0625 Z M 59.078125 -190.921875 C 59.921875 -191.515625 60.21875 -191.929688 59.96875 -192.171875 C 59.726562 -192.410156 59.25 -192.113281 58.53125 -191.28125 C 58.050781 -190.800781 57.84375 -190.53125 57.90625 -190.46875 C 57.96875 -190.40625 58.359375 -190.554688 59.078125 -190.921875 Z M 49.703125 -181.546875 C 49.703125 -181.671875 49.460938 -181.492188 48.984375 -181.015625 C 48.503906 -180.535156 47.96875 -179.929688 47.375 -179.203125 C 46.769531 -178.484375 46.226562 -177.851562 45.75 -177.3125 C 45.269531 -176.769531 45.03125 -176.441406 45.03125 -176.328125 C 45.03125 -176.203125 45.269531 -176.378906 45.75 -176.859375 C 46.226562 -177.347656 46.769531 -177.953125 47.375 -178.671875 C 47.96875 -179.390625 48.503906 -180.019531 48.984375 -180.5625 C 49.460938 -181.101562 49.703125 -181.429688 49.703125 -181.546875 Z M 39.265625 -168.21875 C 40.941406 -170.5 41.660156 -171.640625 41.421875 -171.640625 C 41.304688 -171.640625 40.976562 -171.304688 40.4375 -170.640625 C 39.894531 -169.984375 39.320312 -169.175781 38.71875 -168.21875 C 38.125 -167.382812 37.613281 -166.632812 37.1875 -165.96875 C 36.769531 -165.3125 36.625 -164.984375 36.75 -164.984375 C 36.863281 -164.984375 37.160156 -165.3125 37.640625 -165.96875 C 38.117188 -166.632812 38.660156 -167.382812 39.265625 -168.21875 Z M 21.609375 -139.765625 C 21.972656 -140.722656 22.035156 -141.113281 21.796875 -140.9375 C 21.554688 -140.757812 21.132812 -140.1875 20.53125 -139.21875 C 19.8125 -138.144531 19.753906 -137.726562 20.359375 -137.96875 C 20.835938 -138.445312 21.253906 -139.046875 21.609375 -139.765625 Z M 19.265625 -135.796875 C 19.742188 -136.765625 19.6875 -137.128906 19.09375 -136.890625 C 18.613281 -136.765625 18.253906 -136.460938 18.015625 -135.984375 C 17.773438 -135.503906 17.710938 -135.144531 17.828125 -134.90625 C 18.304688 -134.300781 18.785156 -134.597656 19.265625 -135.796875 Z M 30.984375 -39.625 C 31.222656 -39.988281 31.160156 -40.347656 30.796875 -40.703125 C 30.679688 -40.828125 30.59375 -40.796875 30.53125 -40.609375 C 30.46875 -40.429688 30.5 -40.222656 30.625 -39.984375 C 30.625 -39.023438 30.742188 -38.90625 30.984375 -39.625 Z M 31.34375 -41.96875 C 31.582031 -42.5625 31.519531 -43.101562 31.15625 -43.59375 C 31.039062 -43.832031 30.984375 -43.53125 30.984375 -42.6875 C 30.984375 -41.726562 31.101562 -41.488281 31.34375 -41.96875 Z M 31.703125 -45.203125 C 31.941406 -45.566406 31.878906 -45.925781 31.515625 -46.28125 C 31.398438 -46.40625 31.3125 -46.375 31.25 -46.1875 C 31.1875 -46.007812 31.21875 -45.742188 31.34375 -45.390625 C 31.34375 -44.546875 31.460938 -44.484375 31.703125 -45.203125 Z M 33.859375 -40.34375 C 34.460938 -45.269531 34.765625 -47.972656 34.765625 -48.453125 C 34.765625 -48.929688 34.523438 -48.570312 34.046875 -47.375 C 33.804688 -46.882812 33.625 -46.28125 33.5 -45.5625 C 33.375 -44.84375 33.3125 -44.242188 33.3125 -43.765625 C 33.4375 -42.921875 33.257812 -41.960938 32.78125 -40.890625 C 32.65625 -40.523438 32.5625 -39.800781 32.5 -38.71875 C 32.445312 -37.644531 32.476562 -36.65625 32.59375 -35.75 C 32.71875 -34.851562 32.835938 -34.40625 32.953125 -34.40625 C 33.078125 -34.40625 33.226562 -35.003906 33.40625 -36.203125 C 33.59375 -37.398438 33.742188 -38.78125 33.859375 -40.34375 Z M 35.484375 -54.390625 C 35.722656 -55.710938 35.691406 -56.460938 35.390625 -56.640625 C 35.085938 -56.828125 34.816406 -56.316406 34.578125 -55.109375 C 34.460938 -54.273438 34.429688 -53.46875 34.484375 -52.6875 C 34.546875 -51.90625 34.640625 -51.632812 34.765625 -51.875 C 35.003906 -51.988281 35.148438 -52.316406 35.203125 -52.859375 C 35.265625 -53.398438 35.359375 -53.910156 35.484375 -54.390625 Z M 38.546875 -66.828125 C 38.785156 -67.546875 38.722656 -67.90625 38.359375 -67.90625 C 38.242188 -67.90625 38.003906 -67.484375 37.640625 -66.640625 C 37.285156 -65.796875 36.988281 -64.773438 36.75 -63.578125 C 36.5 -62.492188 36.253906 -61.410156 36.015625 -60.328125 C 35.773438 -59.253906 35.597656 -58.535156 35.484375 -58.171875 C 35.359375 -57.691406 35.328125 -57.421875 35.390625 -57.359375 C 35.453125 -57.304688 35.539062 -57.398438 35.65625 -57.640625 C 35.894531 -57.878906 36.164062 -58.414062 36.46875 -59.25 C 36.769531 -60.09375 37.039062 -60.992188 37.28125 -61.953125 C 37.519531 -63.035156 37.757812 -64.054688 38 -65.015625 C 38.238281 -65.972656 38.421875 -66.578125 38.546875 -66.828125 Z M 38.90625 -76.90625 C 39.382812 -77.75 39.59375 -78.316406 39.53125 -78.609375 C 39.46875 -78.910156 39.140625 -78.882812 38.546875 -78.53125 C 38.304688 -78.40625 37.914062 -77.320312 37.375 -75.28125 C 36.832031 -73.238281 36.226562 -70.804688 35.5625 -67.984375 C 34.90625 -65.171875 34.273438 -62.289062 33.671875 -59.34375 C 33.078125 -56.40625 32.566406 -53.820312 32.140625 -51.59375 C 31.722656 -49.375 31.578125 -48.023438 31.703125 -47.546875 C 31.816406 -47.066406 32.082031 -47.578125 32.5 -49.078125 C 32.925781 -50.578125 33.140625 -51.6875 33.140625 -52.40625 C 33.140625 -52.882812 33.289062 -53.9375 33.59375 -55.5625 C 33.894531 -57.1875 34.253906 -59.019531 34.671875 -61.0625 C 35.085938 -63.101562 35.535156 -64.992188 36.015625 -66.734375 C 36.503906 -68.472656 36.925781 -69.703125 37.28125 -70.421875 C 37.882812 -71.859375 38.1875 -73.0625 38.1875 -74.03125 C 38.1875 -74.382812 38.242188 -74.832031 38.359375 -75.375 C 38.484375 -75.914062 38.664062 -76.425781 38.90625 -76.90625 Z M 103.75 6.125 C 102.90625 4.445312 102.210938 3.15625 101.671875 2.25 C 101.128906 1.351562 100.921875 1.144531 101.046875 1.625 C 101.160156 2.21875 101.640625 3.414062 102.484375 5.21875 C 103.328125 7.019531 104.164062 8.703125 105 10.265625 C 105.84375 11.828125 106.320312 12.546875 106.4375 12.421875 C 106.4375 12.421875 106.164062 11.789062 105.625 10.53125 C 105.09375 9.269531 104.46875 7.800781 103.75 6.125 Z M 100.6875 -44.3125 C 102.726562 -46.707031 104.585938 -48.804688 106.265625 -50.609375 C 107.941406 -52.410156 108.84375 -53.3125 108.96875 -53.3125 C 109.445312 -53.3125 109.6875 -53.613281 109.6875 -54.21875 C 109.6875 -55.050781 110.164062 -56.070312 111.125 -57.28125 C 111.601562 -57.875 112.082031 -58.53125 112.5625 -59.25 C 113.039062 -59.976562 113.40625 -60.519531 113.65625 -60.875 C 114.613281 -62.5625 115.84375 -64.515625 117.34375 -66.734375 C 118.84375 -68.953125 119.648438 -70.125 119.765625 -70.25 C 120.128906 -70.25 120.3125 -70.609375 120.3125 -71.328125 C 120.195312 -71.566406 120.257812 -71.773438 120.5 -71.953125 C 120.738281 -72.128906 120.914062 -72.21875 121.03125 -72.21875 C 121.75 -72.21875 122.109375 -72.640625 122.109375 -73.484375 C 121.992188 -73.722656 122.054688 -74.082031 122.296875 -74.5625 C 122.535156 -75.039062 122.773438 -75.519531 123.015625 -76 C 123.492188 -76.726562 124.125 -77.75 124.90625 -79.0625 C 125.6875 -80.382812 126.40625 -81.644531 127.0625 -82.84375 C 127.726562 -84.050781 128 -84.710938 127.875 -84.828125 C 127.875 -84.953125 128.082031 -85.375 128.5 -86.09375 C 128.925781 -86.8125 129.378906 -87.59375 129.859375 -88.4375 C 131.054688 -90.71875 132.40625 -93.628906 133.90625 -97.171875 C 135.40625 -100.710938 136.96875 -104.492188 138.59375 -108.515625 C 140.21875 -112.535156 141.6875 -116.46875 143 -120.3125 C 144.320312 -124.15625 145.40625 -127.519531 146.25 -130.40625 C 148.050781 -137.007812 149.519531 -142.5625 150.65625 -147.0625 C 151.800781 -151.5625 152.671875 -155.582031 153.265625 -159.125 C 153.867188 -162.664062 154.289062 -166.238281 154.53125 -169.84375 C 154.769531 -173.445312 154.953125 -177.585938 155.078125 -182.265625 C 155.078125 -185.023438 154.925781 -187.90625 154.625 -190.90625 C 154.320312 -193.914062 153.929688 -196.617188 153.453125 -199.015625 C 152.972656 -201.421875 152.429688 -202.984375 151.828125 -203.703125 C 151.347656 -204.660156 151.109375 -205.617188 151.109375 -206.578125 C 150.992188 -207.785156 150.304688 -209.46875 149.046875 -211.625 C 147.785156 -213.789062 146.375 -215.65625 144.8125 -217.21875 C 142.882812 -219.375 139.816406 -221.113281 135.609375 -222.4375 C 131.410156 -223.757812 127.394531 -224.300781 123.5625 -224.0625 C 121.757812 -223.9375 119.265625 -223.453125 116.078125 -222.609375 C 112.898438 -221.773438 109.6875 -220.847656 106.4375 -219.828125 C 103.195312 -218.804688 100.613281 -217.875 98.6875 -217.03125 C 96.769531 -216.1875 96.234375 -215.644531 97.078125 -215.40625 C 97.679688 -215.289062 97.019531 -214.507812 95.09375 -213.0625 C 93.175781 -211.625 90.113281 -209.585938 85.90625 -206.953125 C 66.695312 -194.703125 49.828125 -177.585938 35.296875 -155.609375 C 33.492188 -152.972656 31.660156 -150.003906 29.796875 -146.703125 C 27.941406 -143.398438 26.203125 -140.1875 24.578125 -137.0625 C 22.960938 -133.9375 21.734375 -131.320312 20.890625 -129.21875 C 20.046875 -127.125 19.742188 -125.894531 19.984375 -125.53125 C 20.234375 -125.050781 19.9375 -123.851562 19.09375 -121.9375 C 17.769531 -119.050781 16.566406 -115.773438 15.484375 -112.109375 C 14.410156 -108.453125 13.601562 -104.972656 13.0625 -101.671875 C 12.519531 -98.367188 12.304688 -95.757812 12.421875 -93.84375 C 12.660156 -90.832031 12.898438 -89.023438 13.140625 -88.421875 C 13.390625 -87.828125 14.234375 -87.410156 15.671875 -87.171875 C 17.234375 -86.804688 19.632812 -86.953125 22.875 -87.609375 C 26.113281 -88.273438 29.71875 -89.390625 33.6875 -90.953125 L 38.546875 -92.75 L 41.25 -99.0625 C 44.726562 -107.582031 48.328125 -115.773438 52.046875 -123.640625 C 55.773438 -131.503906 59.347656 -138.554688 62.765625 -144.796875 C 66.191406 -151.046875 69.101562 -155.789062 71.5 -159.03125 C 72.820312 -160.957031 73.660156 -162.191406 74.015625 -162.734375 C 74.378906 -163.273438 74.5625 -163.664062 74.5625 -163.90625 C 74.5625 -164.144531 75.191406 -165.039062 76.453125 -166.59375 C 77.710938 -168.15625 79.179688 -169.894531 80.859375 -171.8125 C 82.546875 -173.738281 84.050781 -175.421875 85.375 -176.859375 C 86.695312 -178.304688 87.476562 -179.03125 87.71875 -179.03125 C 88.3125 -179.269531 88.609375 -179.507812 88.609375 -179.75 C 88.609375 -180.113281 89.175781 -180.503906 90.3125 -180.921875 C 91.457031 -181.335938 92.78125 -181.695312 94.28125 -182 C 95.78125 -182.300781 96.953125 -182.390625 97.796875 -182.265625 C 99.117188 -182.148438 100.347656 -181.726562 101.484375 -181 C 102.628906 -180.28125 102.84375 -179.742188 102.125 -179.390625 C 101.644531 -179.148438 102.0625 -178.847656 103.375 -178.484375 C 106.625 -177.765625 107.585938 -176.566406 106.265625 -174.890625 C 105.660156 -174.046875 105.359375 -173.320312 105.359375 -172.71875 C 105.359375 -172.238281 104.785156 -171.367188 103.640625 -170.109375 C 102.503906 -168.847656 100.976562 -167.4375 99.0625 -165.875 C 98.34375 -165.28125 97.410156 -164.378906 96.265625 -163.171875 C 95.128906 -161.972656 94.078125 -160.773438 93.109375 -159.578125 C 92.273438 -158.378906 91.40625 -157.390625 90.5 -156.609375 C 89.601562 -155.828125 88.972656 -155.4375 88.609375 -155.4375 C 88.015625 -155.195312 87.773438 -154.835938 87.890625 -154.359375 C 88.015625 -154.234375 87.566406 -153.269531 86.546875 -151.46875 C 85.523438 -149.664062 84.351562 -147.566406 83.03125 -145.171875 C 81.59375 -142.890625 79.703125 -139.765625 77.359375 -135.796875 C 75.015625 -131.835938 73.003906 -128.238281 71.328125 -125 C 69.523438 -121.632812 67.898438 -118.691406 66.453125 -116.171875 C 65.015625 -113.648438 64.175781 -112.269531 63.9375 -112.03125 C 63.582031 -111.550781 63.40625 -111.070312 63.40625 -110.59375 C 63.644531 -110.351562 63.398438 -109.507812 62.671875 -108.0625 C 61.835938 -106.5 61.476562 -105.660156 61.59375 -105.546875 C 61.59375 -105.304688 62.550781 -105.695312 64.46875 -106.71875 C 66.394531 -107.738281 68.828125 -109.085938 71.765625 -110.765625 C 74.710938 -112.441406 77.804688 -114.269531 81.046875 -116.25 C 84.285156 -118.238281 87.226562 -120.132812 89.875 -121.9375 C 93.351562 -124.457031 95.332031 -125.476562 95.8125 -125 C 96.289062 -124.632812 95.8125 -123.910156 94.375 -122.828125 C 91.851562 -121.035156 91.675781 -120.5 93.84375 -121.21875 C 94.914062 -121.695312 95.453125 -121.753906 95.453125 -121.390625 C 95.453125 -121.148438 95.09375 -120.578125 94.375 -119.671875 C 93.65625 -118.773438 92.9375 -117.90625 92.21875 -117.0625 C 91.5 -116.226562 91.019531 -115.8125 90.78125 -115.8125 C 90.539062 -115.8125 89.335938 -114.96875 87.171875 -113.28125 C 86.328125 -112.6875 85.1875 -111.878906 83.75 -110.859375 C 82.3125 -109.835938 80.929688 -108.96875 79.609375 -108.25 C 76.722656 -106.5625 75.28125 -105.539062 75.28125 -105.1875 C 75.519531 -105.1875 76.085938 -105.425781 76.984375 -105.90625 C 77.890625 -106.382812 78.945312 -106.984375 80.15625 -107.703125 C 83.507812 -109.742188 85.875 -111.273438 87.25 -112.296875 C 88.632812 -113.316406 90.109375 -114.425781 91.671875 -115.625 C 93.597656 -117.3125 94.679688 -118.035156 94.921875 -117.796875 C 95.753906 -117.316406 94.941406 -115.8125 92.484375 -113.28125 C 90.023438 -110.757812 86.570312 -107.941406 82.125 -104.828125 C 75.882812 -100.503906 70.332031 -96.71875 65.46875 -93.46875 C 60.601562 -90.226562 57.628906 -88.3125 56.546875 -87.71875 C 55.472656 -87.238281 54.695312 -86.632812 54.21875 -85.90625 C 53.738281 -85.1875 53.078125 -83.75 52.234375 -81.59375 C 50.796875 -77.988281 49.414062 -73.664062 48.09375 -68.625 C 46.769531 -63.582031 45.566406 -58.359375 44.484375 -52.953125 C 43.398438 -47.546875 42.554688 -42.441406 41.953125 -37.640625 C 41.359375 -32.835938 41.0625 -28.9375 41.0625 -25.9375 C 41.0625 -24.738281 41.0625 -23.597656 41.0625 -22.515625 C 41.0625 -21.429688 41.003906 -20.710938 40.890625 -20.359375 C 40.765625 -19.867188 40.789062 -18.84375 40.96875 -17.28125 C 41.15625 -15.726562 41.425781 -14.203125 41.78125 -12.703125 C 42.144531 -11.203125 42.445312 -10.269531 42.6875 -9.90625 C 43.289062 -9.300781 44.3125 -8.789062 45.75 -8.375 C 47.1875 -7.957031 48.628906 -7.804688 50.078125 -7.921875 C 50.429688 -7.921875 51.085938 -8.070312 52.046875 -8.375 C 53.015625 -8.675781 53.914062 -9.003906 54.75 -9.359375 C 56.914062 -10.203125 59.40625 -11.375 62.21875 -12.875 C 65.039062 -14.375 67.65625 -15.90625 70.0625 -17.46875 C 71.019531 -18.070312 71.976562 -18.640625 72.9375 -19.171875 C 73.90625 -19.710938 74.445312 -19.984375 74.5625 -19.984375 C 75.28125 -19.984375 75.820312 -20.40625 76.1875 -21.25 C 76.425781 -21.488281 76.960938 -21.96875 77.796875 -22.6875 C 78.640625 -23.414062 79.484375 -24.140625 80.328125 -24.859375 C 80.691406 -25.097656 81.140625 -25.425781 81.671875 -25.84375 C 82.210938 -26.257812 82.785156 -26.710938 83.390625 -27.203125 C 82.910156 -29.835938 82.519531 -31.992188 82.21875 -33.671875 C 81.914062 -35.359375 81.765625 -36.382812 81.765625 -36.75 C 81.410156 -38.78125 81.082031 -40.097656 80.78125 -40.703125 C 80.476562 -41.304688 80.023438 -41.785156 79.421875 -42.140625 C 78.585938 -42.378906 78.140625 -42.707031 78.078125 -43.125 C 78.015625 -43.550781 78.046875 -44.363281 78.171875 -45.5625 C 78.523438 -47.363281 78.671875 -49.375 78.609375 -51.59375 C 78.554688 -53.820312 78.289062 -55.65625 77.8125 -57.09375 C 76.25 -62.613281 77.75 -66.578125 82.3125 -68.984375 C 84.351562 -69.941406 86.0625 -70.359375 87.4375 -70.234375 C 88.820312 -70.117188 90.234375 -69.398438 91.671875 -68.078125 C 92.992188 -66.878906 93.953125 -65.347656 94.546875 -63.484375 C 95.148438 -61.628906 95.691406 -58.539062 96.171875 -54.21875 C 96.535156 -50.726562 97.195312 -46.460938 98.15625 -41.421875 C 98.519531 -41.898438 98.910156 -42.378906 99.328125 -42.859375 C 99.742188 -43.347656 100.195312 -43.832031 100.6875 -44.3125 Z M 57.640625 -122.296875 C 57.398438 -122.648438 57.609375 -123.664062 58.265625 -125.34375 C 58.921875 -127.03125 59.789062 -128.835938 60.875 -130.765625 C 61.71875 -132.441406 62.019531 -133.398438 61.78125 -133.640625 C 61.65625 -133.765625 61.351562 -133.40625 60.875 -132.5625 C 60.394531 -131.71875 59.015625 -129.078125 56.734375 -124.640625 C 56.015625 -123.191406 54.960938 -120.96875 53.578125 -117.96875 C 52.203125 -114.96875 50.789062 -111.847656 49.34375 -108.609375 C 47.90625 -105.367188 46.707031 -102.578125 45.75 -100.234375 C 44.789062 -97.890625 44.3125 -96.597656 44.3125 -96.359375 C 44.425781 -95.398438 45.144531 -96.359375 46.46875 -99.234375 C 47.1875 -101.398438 47.847656 -102.363281 48.453125 -102.125 C 49.046875 -102 49.101562 -102.117188 48.625 -102.484375 C 48.382812 -102.835938 48.535156 -103.851562 49.078125 -105.53125 C 49.617188 -107.21875 50.128906 -108.125 50.609375 -108.25 C 50.972656 -108.25 51.035156 -107.945312 50.796875 -107.34375 C 50.671875 -107.101562 50.664062 -106.921875 50.78125 -106.796875 C 50.90625 -106.679688 51.03125 -106.6875 51.15625 -106.8125 C 51.507812 -107.164062 51.566406 -107.941406 51.328125 -109.140625 C 51.210938 -109.984375 51.210938 -110.492188 51.328125 -110.671875 C 51.453125 -110.859375 51.753906 -110.953125 52.234375 -110.953125 C 52.953125 -110.953125 53.191406 -111.3125 52.953125 -112.03125 C 52.710938 -112.507812 52.890625 -113.554688 53.484375 -115.171875 C 54.085938 -116.796875 54.78125 -118.328125 55.5625 -119.765625 C 56.34375 -121.210938 56.914062 -121.9375 57.28125 -121.9375 C 57.519531 -121.8125 57.695312 -121.804688 57.8125 -121.921875 C 57.9375 -122.046875 57.878906 -122.171875 57.640625 -122.296875 Z M 51.875 -95.640625 C 52.832031 -95.640625 52.953125 -95.757812 52.234375 -96 C 51.867188 -96.113281 51.445312 -96.050781 50.96875 -95.8125 C 50.851562 -95.695312 50.914062 -95.609375 51.15625 -95.546875 C 51.394531 -95.484375 51.632812 -95.515625 51.875 -95.640625 Z M 48.984375 -94.5625 C 47.304688 -93.59375 46.890625 -93.171875 47.734375 -93.296875 C 47.972656 -93.296875 48.570312 -93.65625 49.53125 -94.375 C 50.007812 -94.976562 50.21875 -95.28125 50.15625 -95.28125 C 50.101562 -95.28125 49.710938 -95.039062 48.984375 -94.5625 Z M 47.1875 -98.34375 C 47.070312 -97.863281 47.039062 -97.59375 47.09375 -97.53125 C 47.15625 -97.46875 47.304688 -97.617188 47.546875 -97.984375 C 47.910156 -98.578125 48.03125 -98.9375 47.90625 -99.0625 C 47.664062 -99.300781 47.425781 -99.0625 47.1875 -98.34375 Z M 62.671875 -136.890625 C 61.835938 -135.203125 61.835938 -134.421875 62.671875 -134.546875 C 63.035156 -134.546875 63.519531 -135.203125 64.125 -136.515625 C 64.601562 -137.597656 64.628906 -138.171875 64.203125 -138.234375 C 63.785156 -138.296875 63.273438 -137.847656 62.671875 -136.890625 Z M 135.796875 -94.375 C 135.921875 -94.375 136.160156 -94.765625 136.515625 -95.546875 C 136.878906 -96.328125 137.300781 -97.257812 137.78125 -98.34375 C 138.144531 -99.414062 138.472656 -100.34375 138.765625 -101.125 C 139.066406 -101.90625 139.160156 -102.359375 139.046875 -102.484375 C 138.921875 -102.484375 138.675781 -102.09375 138.3125 -101.3125 C 137.957031 -100.53125 137.539062 -99.597656 137.0625 -98.515625 C 136.582031 -97.316406 136.222656 -96.328125 135.984375 -95.546875 C 135.742188 -94.765625 135.679688 -94.375 135.796875 -94.375 Z M 137.421875 -87.890625 C 137.660156 -88.734375 137.722656 -89.15625 137.609375 -89.15625 C 137.484375 -89.15625 137.359375 -89.003906 137.234375 -88.703125 C 137.117188 -88.398438 136.941406 -88.128906 136.703125 -87.890625 C 136.460938 -86.929688 136.398438 -86.453125 136.515625 -86.453125 C 136.765625 -86.691406 137.066406 -87.171875 137.421875 -87.890625 Z M 134.359375 -91.3125 C 134.722656 -91.914062 134.90625 -92.394531 134.90625 -92.75 C 134.90625 -93.113281 134.722656 -92.992188 134.359375 -92.390625 C 134.003906 -91.910156 133.828125 -91.375 133.828125 -90.78125 C 133.828125 -90.65625 133.882812 -90.648438 134 -90.765625 C 134.125 -90.890625 134.242188 -91.070312 134.359375 -91.3125 Z M 125.71875 -74.5625 C 127.875 -78.53125 129.160156 -80.898438 129.578125 -81.671875 C 130.003906 -82.453125 130.097656 -82.84375 129.859375 -82.84375 C 129.734375 -82.84375 129.460938 -82.484375 129.046875 -81.765625 C 128.628906 -81.046875 128.117188 -80.144531 127.515625 -79.0625 C 127.035156 -78.101562 126.40625 -76.992188 125.625 -75.734375 C 124.84375 -74.472656 124.210938 -73.484375 123.734375 -72.765625 C 122.890625 -71.566406 122.257812 -70.457031 121.84375 -69.4375 C 121.425781 -68.414062 121.335938 -67.960938 121.578125 -68.078125 C 121.691406 -68.078125 122.140625 -68.707031 122.921875 -69.96875 C 123.703125 -71.226562 124.632812 -72.757812 125.71875 -74.5625 Z M 115.09375 -58.359375 C 115.332031 -58.953125 114.609375 -58.226562 112.921875 -56.1875 C 111.003906 -53.789062 109.863281 -52.203125 109.5 -51.421875 C 109.144531 -50.640625 109.867188 -51.332031 111.671875 -53.5 C 112.503906 -54.457031 113.25 -55.414062 113.90625 -56.375 C 114.570312 -57.332031 114.96875 -57.992188 115.09375 -58.359375 Z M 105.1875 -47.1875 C 104.34375 -46.101562 104.101562 -45.5625 104.46875 -45.5625 C 104.945312 -45.5625 105.484375 -46.101562 106.078125 -47.1875 C 106.679688 -48.269531 106.921875 -48.78125 106.796875 -48.71875 C 106.679688 -48.65625 106.144531 -48.144531 105.1875 -47.1875 Z M 163.359375 -157.953125 C 163.722656 -159.878906 164.023438 -162.398438 164.265625 -165.515625 C 164.503906 -168.640625 164.625 -171.757812 164.625 -174.875 C 164.625 -178 164.503906 -180.523438 164.265625 -182.453125 C 163.898438 -186.648438 163.535156 -188.210938 163.171875 -187.140625 C 162.816406 -185.929688 162.488281 -185.445312 162.1875 -185.6875 C 161.882812 -185.925781 161.675781 -186.769531 161.5625 -188.21875 C 161.4375 -189.894531 161.34375 -190.132812 161.28125 -188.9375 C 161.226562 -187.738281 161.019531 -184.132812 160.65625 -178.125 C 160.539062 -175.488281 160.359375 -173.054688 160.109375 -170.828125 C 159.867188 -168.609375 159.691406 -167.257812 159.578125 -166.78125 C 159.453125 -165.582031 159.628906 -165.160156 160.109375 -165.515625 C 160.597656 -165.878906 160.84375 -165.191406 160.84375 -163.453125 C 160.84375 -161.710938 160.539062 -159.519531 159.9375 -156.875 C 159.457031 -154.351562 159.066406 -153.269531 158.765625 -153.625 C 158.460938 -153.988281 158.550781 -155.429688 159.03125 -157.953125 C 159.75 -162.035156 159.957031 -163.773438 159.65625 -163.171875 C 159.363281 -162.578125 158.796875 -160.054688 157.953125 -155.609375 C 157.109375 -150.929688 156.085938 -146.21875 154.890625 -141.46875 C 153.691406 -136.726562 152.519531 -132.46875 151.375 -128.6875 C 150.238281 -124.90625 149.28125 -122.113281 148.5 -120.3125 C 147.71875 -118.507812 147.269531 -118.207031 147.15625 -119.40625 C 147.15625 -120.132812 147.753906 -122 148.953125 -125 C 149.429688 -126.320312 149.910156 -127.820312 150.390625 -129.5 C 150.867188 -131.175781 151.171875 -132.4375 151.296875 -133.28125 C 151.535156 -134.238281 151.832031 -135.46875 152.1875 -136.96875 C 152.550781 -138.46875 152.910156 -139.820312 153.265625 -141.03125 C 153.515625 -142.34375 153.757812 -143.539062 154 -144.625 C 154.238281 -145.707031 154.296875 -146.367188 154.171875 -146.609375 C 154.171875 -146.972656 154.109375 -147.003906 153.984375 -146.703125 C 153.867188 -146.398438 153.691406 -145.828125 153.453125 -144.984375 C 153.085938 -143.066406 152.457031 -140.632812 151.5625 -137.6875 C 150.664062 -134.75 149.972656 -132.859375 149.484375 -132.015625 C 149.003906 -130.941406 148.882812 -130.222656 149.125 -129.859375 C 149.601562 -129.492188 149.363281 -128.832031 148.40625 -127.875 C 147.925781 -127.28125 147.382812 -126.082031 146.78125 -124.28125 C 146.1875 -122.476562 145.738281 -120.734375 145.4375 -119.046875 C 145.132812 -117.367188 145.101562 -116.410156 145.34375 -116.171875 C 145.945312 -115.691406 145.890625 -113.800781 145.171875 -110.5 C 144.453125 -107.195312 143.25 -103.382812 141.5625 -99.0625 C 140.726562 -96.78125 140.039062 -94.859375 139.5 -93.296875 C 138.957031 -91.734375 138.742188 -90.953125 138.859375 -90.953125 C 138.984375 -90.953125 139.460938 -91.972656 140.296875 -94.015625 C 141.140625 -96.054688 142.128906 -98.632812 143.265625 -101.75 C 144.410156 -104.875 145.582031 -108.207031 146.78125 -111.75 C 147.988281 -115.300781 149.101562 -118.601562 150.125 -121.65625 C 151.144531 -124.71875 151.894531 -127.148438 152.375 -128.953125 C 153.21875 -132.078125 153.785156 -133.96875 154.078125 -134.625 C 154.378906 -135.289062 154.710938 -135.503906 155.078125 -135.265625 C 155.191406 -135.140625 155.039062 -134.234375 154.625 -132.546875 C 154.207031 -130.867188 153.695312 -129.039062 153.09375 -127.0625 C 152.488281 -125.082031 151.945312 -123.429688 151.46875 -122.109375 C 151.113281 -121.390625 150.9375 -120.789062 150.9375 -120.3125 C 151.050781 -120.070312 150.988281 -119.617188 150.75 -118.953125 C 150.507812 -118.296875 150.269531 -117.671875 150.03125 -117.078125 C 149.789062 -116.347656 149.1875 -114.660156 148.21875 -112.015625 C 147.257812 -109.378906 146.179688 -106.5625 144.984375 -103.5625 C 139.941406 -89.988281 136.757812 -83.382812 135.4375 -83.75 C 134.84375 -83.988281 134.546875 -83.867188 134.546875 -83.390625 C 134.546875 -83.148438 134.035156 -82.066406 133.015625 -80.140625 C 131.992188 -78.222656 130.703125 -75.910156 129.140625 -73.203125 C 127.578125 -70.503906 126.015625 -67.894531 124.453125 -65.375 C 122.890625 -62.851562 121.628906 -60.875 120.671875 -59.4375 C 118.148438 -55.832031 115.75 -52.554688 113.46875 -49.609375 C 111.1875 -46.671875 109.742188 -44.90625 109.140625 -44.3125 C 108.898438 -44.070312 108.421875 -43.410156 107.703125 -42.328125 C 106.984375 -41.242188 106.320312 -40.191406 105.71875 -39.171875 C 105.125 -38.148438 104.828125 -37.519531 104.828125 -37.28125 C 104.828125 -37.164062 105.003906 -37.316406 105.359375 -37.734375 C 105.722656 -38.148438 106.144531 -38.597656 106.625 -39.078125 C 107.582031 -40.523438 108.300781 -41.128906 108.78125 -40.890625 C 109.144531 -40.648438 108.96875 -40.046875 108.25 -39.078125 C 107.53125 -38.117188 107.410156 -37.820312 107.890625 -38.1875 C 109.566406 -39.257812 110.914062 -40.304688 111.9375 -41.328125 C 112.957031 -42.347656 113.890625 -43.460938 114.734375 -44.671875 C 115.691406 -46.472656 116.472656 -47.375 117.078125 -47.375 C 117.554688 -47.488281 118.722656 -48.71875 120.578125 -51.0625 C 122.441406 -53.40625 124.453125 -56.253906 126.609375 -59.609375 C 128.773438 -62.972656 130.640625 -66.035156 132.203125 -68.796875 C 133.046875 -70.117188 133.765625 -71.320312 134.359375 -72.40625 C 134.960938 -73.488281 135.320312 -74.085938 135.4375 -74.203125 C 135.5625 -74.328125 136.101562 -75.347656 137.0625 -77.265625 C 138.019531 -79.191406 139.160156 -81.472656 140.484375 -84.109375 C 141.804688 -86.753906 142.945312 -89.15625 143.90625 -91.3125 C 144.382812 -92.394531 144.832031 -93.265625 145.25 -93.921875 C 145.675781 -94.585938 145.945312 -94.859375 146.0625 -94.734375 C 146.425781 -94.617188 146.9375 -95.3125 147.59375 -96.8125 C 148.257812 -98.3125 148.53125 -99.484375 148.40625 -100.328125 C 148.40625 -100.921875 148.675781 -102.238281 149.21875 -104.28125 C 149.757812 -106.320312 150.359375 -108.394531 151.015625 -110.5 C 151.679688 -112.601562 152.132812 -113.894531 152.375 -114.375 C 152.726562 -114.851562 153.148438 -114.789062 153.640625 -114.1875 C 153.992188 -113.34375 154.234375 -113.765625 154.359375 -115.453125 C 154.472656 -117.492188 154.707031 -119.203125 155.0625 -120.578125 C 155.425781 -121.960938 155.726562 -122.65625 155.96875 -122.65625 C 156.332031 -122.65625 156.515625 -123.132812 156.515625 -124.09375 C 156.390625 -124.457031 156.382812 -124.878906 156.5 -125.359375 C 156.625 -125.835938 156.75 -126.132812 156.875 -126.25 C 157.351562 -126.738281 157.800781 -127.640625 158.21875 -128.953125 C 158.644531 -130.273438 159.273438 -132.796875 160.109375 -136.515625 C 160.359375 -137.835938 160.691406 -139.21875 161.109375 -140.65625 C 161.523438 -142.101562 161.796875 -143.25 161.921875 -144.09375 C 162.160156 -144.8125 162.335938 -145.585938 162.453125 -146.421875 C 162.578125 -147.265625 162.578125 -147.867188 162.453125 -148.234375 C 162.453125 -149.066406 162.632812 -149.664062 163 -150.03125 C 163.363281 -150.15625 163.421875 -151.113281 163.171875 -152.90625 C 163.054688 -153.632812 163.023438 -154.476562 163.078125 -155.4375 C 163.140625 -156.394531 163.234375 -157.234375 163.359375 -157.953125 Z M 127.34375 -67.90625 C 127.820312 -68.382812 128.0625 -68.5625 128.0625 -68.4375 C 128.0625 -68.320312 127.941406 -67.90625 127.703125 -67.1875 C 127.222656 -65.976562 126.738281 -65.316406 126.25 -65.203125 C 125.769531 -64.960938 125.648438 -65.203125 125.890625 -65.921875 C 126.128906 -66.160156 126.367188 -66.488281 126.609375 -66.90625 C 126.859375 -67.332031 127.101562 -67.664062 127.34375 -67.90625 Z M 127.34375 -67.90625 "/></g></g></g></svg>